<svg width="123" height="126" viewBox="0 0 123 126" fill="none" xmlns="http://www.w3.org/2000/svg">
<path d="M41.5036 69.4069C40.2685 67.67 39.6753 65.5612 38.5265 63.8821C38.3928 63.6831 38.2529 63.491 38.1074 63.306C38.6447 62.4781 38.8739 61.5088 39.5456 60.7974C40.3355 59.9244 41.7792 59.4755 42.4652 58.6293C43.1016 57.7969 43.0267 56.5661 43.5818 55.7605C43.7849 55.4489 44.0815 55.2042 44.3888 54.9716C44.1552 54.7863 43.9404 54.5649 43.7492 54.3124C43.6844 54.2255 43.6229 54.1347 43.5648 54.0404C43.3098 53.6188 43.0699 53.3011 42.8483 53.0625C42.3827 52.532 41.9367 52.3698 41.537 52.2351C41.2039 52.119 40.8894 52.0126 40.6368 51.6889C40.5175 51.5257 40.4124 51.3007 40.3355 50.9972C40.3029 50.8616 40.2671 50.7273 40.228 50.5944C40.0353 49.8643 39.7788 49.387 39.5595 49.085C39.1745 49.3789 38.768 49.6591 38.4123 50.1161C37.7232 50.9562 37.2723 52.3445 36.5003 53.2094C35.6795 54.093 34.4943 54.471 33.5704 55.3815C33.4574 55.4889 33.3519 55.609 33.2468 55.7291C33.0771 55.3136 32.8943 54.9144 32.6806 54.5455C31.8812 53.1136 30.646 52.194 29.9568 50.8376C29.3165 49.5193 29.1777 47.7251 28.6257 46.4696C28.3469 45.7947 27.9627 45.3067 27.6058 44.8102C27.2799 45.0716 26.8643 45.5205 26.4527 46.2907C26.3778 46.4194 26.2997 46.5628 26.2236 46.7133C26.0562 47.037 25.8782 47.2524 25.7001 47.3953C25.3397 47.6613 24.9674 47.6653 24.5744 47.6653H24.5403C24.0538 47.6582 23.5082 47.6663 22.8424 48.0935C22.5291 48.2794 22.1731 48.5545 21.7745 48.9386C21.6842 49.024 21.5908 49.104 21.4946 49.1783C21.1984 49.4037 20.8951 49.5719 20.5977 49.687C20.8839 50.0796 21.1508 50.4855 21.2975 50.9288C21.7091 52.0886 21.2963 53.4891 21.7932 54.7092C22.342 55.9688 23.8488 57.0764 24.5074 58.4115C25.1696 59.6893 25.0502 61.1364 25.6815 62.4867C25.0145 63.2503 24.367 64.0584 23.549 64.6867C22.6988 65.3307 21.6358 65.8156 20.5977 66.34C20.7269 66.6795 21.0104 67.0514 21.5727 67.3189C21.8745 67.4547 22.8313 67.6416 22.8801 67.6472C23.4479 67.743 23.7473 67.9502 23.9126 68.2112C24.2179 68.6712 24.1446 69.3213 24.5625 69.83C24.8928 70.1913 25.5982 70.4942 26.8707 70.59C27.6522 70.6275 28.3894 70.7603 28.8604 70.9411C29.5008 70.6305 30.1313 70.3194 30.667 69.9698C30.9065 70.6797 31.1805 71.3926 31.6464 72.0918C32.2039 72.9071 33.0204 73.7071 33.8523 74.5132C34.43 74.4965 35.1434 74.5933 36.034 74.8654C36.1089 74.8912 36.1926 74.916 36.2648 74.9338C36.9654 75.1299 37.5142 75.2109 37.9464 75.2109C38.4151 75.2109 38.7478 75.1157 38.9921 74.9657C39.5983 74.5441 39.6884 73.7613 40.1547 73.3504C40.3406 73.1796 40.6218 73.0748 41.0151 73.0748C41.1876 73.0759 41.3597 73.093 41.5302 73.1259L41.5199 73.1229C41.9517 73.2212 42.4133 73.2719 42.7717 73.2719C42.8653 73.2719 42.9522 73.2683 43.0295 73.2612C43.7349 73.1791 44.1524 72.8645 44.3896 72.5199C43.3582 71.4919 42.2896 70.4993 41.5036 69.4069ZM41.6385 55.8289C41.7741 55.4135 41.9026 55.0203 42.0965 54.697C42.2634 54.4026 42.5045 54.1326 42.7602 53.8463L42.8459 53.7505C42.9549 53.8929 43.0652 54.052 43.175 54.2258C42.9482 54.4482 42.7337 54.6864 42.5675 54.9615C42.2876 55.4013 42.1456 55.907 42.008 56.3959C41.8577 56.9299 41.7162 57.4341 41.4124 57.7928C41.0778 58.1688 40.5445 58.452 39.979 58.752C39.4243 59.0458 38.8505 59.3503 38.3973 59.78C37.9084 60.2274 37.5681 60.7848 37.239 61.3244C37.1173 61.524 36.996 61.7155 36.871 61.9035C36.6415 61.6608 36.4123 61.4201 36.1874 61.1784C36.2342 61.1166 36.2822 61.0548 36.3282 60.9935C36.7116 60.4848 37.0737 60.004 37.5134 59.6498C37.9218 59.3103 38.4456 59.0636 38.9516 58.8249C39.571 58.5331 40.2106 58.2311 40.6864 57.7361C41.1936 57.1883 41.4299 56.4658 41.6385 55.8289ZM34.7651 57.0627C35.1811 56.6999 35.6783 56.442 36.1593 56.1932C36.7299 55.8973 37.3211 55.5913 37.8033 55.0948C38.2966 54.5663 38.6106 53.8853 38.9143 53.2266C39.1249 52.7696 39.3239 52.3374 39.5718 51.9883C39.7154 51.7843 39.8721 51.5958 40.0401 51.4249C40.1222 51.6625 40.2272 51.8692 40.3573 52.0476C40.4897 52.2168 40.6333 52.3399 40.782 52.4352C40.6266 52.6198 40.4832 52.8201 40.3529 53.0341C40.098 53.4435 39.9211 53.9106 39.7498 54.3631C39.5175 54.9757 39.2982 55.5543 38.9155 55.9571C38.5337 56.3397 37.9928 56.5879 37.4202 56.8514C36.8825 57.0982 36.3258 57.354 35.8381 57.7467C35.3758 58.108 34.9753 58.5782 34.5906 59.0474C34.386 58.6524 34.2011 58.2414 34.0371 57.8166C34.2714 57.5354 34.5093 57.2765 34.7651 57.0627ZM23.9776 67.6001C23.7262 67.369 23.384 67.2216 22.9237 67.1436C22.9058 67.141 22.8741 67.135 22.8317 67.1269C23.4657 66.7499 24.0974 66.3577 24.6164 65.9321C25.0463 65.5724 25.894 64.8985 26.8683 64.1324C27.0888 64.3751 27.3215 64.6178 27.5563 64.861C26.7533 65.4913 26.0753 66.039 25.7132 66.3638C25.2362 66.7783 24.626 67.1785 23.9776 67.6001ZM27.5166 66.0304C27.6685 65.7811 27.8473 65.5399 28.0162 65.3398C28.1019 65.4295 28.1867 65.5192 28.2712 65.6094C28.2264 65.6823 28.1812 65.7553 28.1273 65.8404C27.1526 67.3209 25.3496 67.9386 25.3496 67.9386C26.5852 67.293 27.2628 66.4393 27.5166 66.0304ZM29.3073 68.4645C28.6864 68.9904 27.8814 69.4535 27.0297 69.9435L26.7977 70.0772C26.1839 70.0246 25.7509 69.9252 25.4456 69.8148C25.582 69.7266 25.7184 69.64 25.8528 69.5544C26.555 69.1065 27.2188 68.6834 27.745 68.2203C28.0674 67.9305 28.6463 67.4542 29.3394 66.8994C29.3969 66.9825 29.4529 67.0655 29.5048 67.1497C29.6698 67.4081 29.8066 67.6705 29.9283 67.9355C29.6737 68.1493 29.4616 68.3302 29.3073 68.4645ZM37.9464 74.7042C37.5408 74.7042 37.0364 74.6247 36.4468 74.4661C36.2695 74.271 36.0899 74.0765 35.9107 73.8834C35.1581 73.0687 34.4471 72.299 33.9554 71.541C33.47 70.7765 33.1909 69.9916 32.8959 69.1607C32.5795 68.2714 32.2527 67.3518 31.6639 66.4849C31.1123 65.6534 30.3498 64.9223 29.6115 64.215C28.9096 63.5421 28.247 62.9067 27.8021 62.2369C27.3648 61.5559 27.1399 60.806 26.902 60.0111C26.6764 59.2581 26.4432 58.4794 26.0209 57.7786C25.624 57.0946 25.0609 56.5129 24.5165 55.95C23.955 55.3694 23.4245 54.8206 23.1481 54.2486C22.8872 53.6761 22.8606 53.0209 22.8329 52.3273C22.8079 51.7127 22.7829 51.0778 22.5934 50.4804C22.47 50.0604 22.2714 49.6723 22.0589 49.2999C22.2616 49.1055 22.4732 48.9267 22.6925 48.7643L22.7896 48.9649C23.005 49.4068 23.2084 49.8238 23.325 50.2575C23.457 50.7094 23.4978 51.2242 23.5407 51.7694C23.6045 52.5821 23.6775 53.5033 24.0974 54.3347C24.4911 55.0801 25.1272 55.684 25.7418 56.2682C26.2525 56.7536 26.7807 57.2552 27.1594 57.8283C27.5618 58.4191 27.8434 59.1274 28.1419 59.8773C28.4845 60.7397 28.8394 61.6314 29.4128 62.4289C29.958 63.1656 30.6777 63.8106 31.374 64.4349C32.1036 65.0885 32.8578 65.7649 33.4011 66.5376C33.9895 67.3589 34.3416 68.2568 34.7143 69.2078C35.0399 70.0392 35.3765 70.8981 35.89 71.7361C36.3552 72.4794 36.9908 73.2389 37.6641 74.0435C37.8429 74.2568 38.0241 74.4742 38.2038 74.6921C38.1181 74.7004 38.0323 74.7045 37.9464 74.7042ZM36.036 68.8891C35.2167 66.3476 34.5855 65.7046 32.2111 63.6394C30.0385 61.7333 29.7808 59.5069 29.7808 59.5069C30.2245 60.541 30.847 61.8533 33.6592 64.2661C35.4499 65.7933 36.2311 67.8793 36.6728 69.3568C36.85 69.9369 37.3869 71.2016 38.6082 72.4521C38.6078 72.4521 36.7398 71.003 36.036 68.8891ZM41.5833 72.6233L41.5826 72.6253L41.5734 72.6218L41.55 72.6177C41.3727 72.5862 41.1938 72.5696 41.0147 72.5681C40.7094 72.5681 40.4445 72.6238 40.2225 72.7338C39.5916 71.9677 38.9984 71.2426 38.5662 70.5556C38.0947 69.7905 37.7458 68.961 37.4079 68.1585C36.9829 67.1481 36.5427 66.1029 35.8579 65.166C35.2382 64.3006 34.4538 63.6059 33.6953 62.9346C33.0133 62.3311 32.3693 61.7606 31.8693 61.1009C31.3526 60.4058 30.9787 59.549 30.6167 58.7205C30.2749 57.9372 29.9208 57.1275 29.4509 56.4567C29.0044 55.8026 28.4477 55.2827 27.9088 54.7791C27.3299 54.238 26.7827 53.7272 26.4543 53.1293C26.1153 52.4772 26.0201 51.7061 25.9198 50.8898C25.8473 50.3021 25.7727 49.6946 25.6018 49.1382C25.5023 48.7896 25.3635 48.4547 25.216 48.1289C25.4604 48.0851 25.696 47.9818 25.9099 47.8244C26.1213 47.6512 26.306 47.4298 26.4547 47.1713C26.6189 47.4789 26.7723 47.795 26.8881 48.1254C27.0745 48.63 27.1847 49.2178 27.3017 49.8395C27.4671 50.7181 27.638 51.6265 28.0503 52.4377C28.4524 53.1866 29.0313 53.7759 29.5916 54.3454C30.071 54.8333 30.5667 55.3375 30.9489 55.9424C31.3526 56.5575 31.6651 57.3054 31.9954 58.0973C32.3725 59.0012 32.7626 59.9356 33.3253 60.7478C33.8713 61.5179 34.5641 62.1715 35.2338 62.8034C35.9142 63.4458 36.6173 64.1091 37.168 64.8965C37.7545 65.7147 38.1716 66.6389 38.6134 67.6183C39.0222 68.5248 39.4453 69.4626 40.0246 70.3438C40.548 71.1276 41.2174 71.8891 41.9291 72.6907C41.8135 72.6712 41.6982 72.6487 41.5833 72.6233Z" fill="#DD2A1B"/>
<path d="M69.947 69.4069C68.7118 67.67 68.1186 65.5612 66.9699 63.8821C66.8361 63.6831 66.6963 63.491 66.5508 63.306C67.0881 62.4781 67.3173 61.5088 67.989 60.7974C68.7788 59.9244 70.2226 59.4755 70.9086 58.6293C71.545 57.7969 71.4701 56.5661 72.0252 55.7605C72.2282 55.4489 72.5248 55.2042 72.8321 54.9716C72.5986 54.7863 72.3838 54.5649 72.1925 54.3124C72.1278 54.2255 72.0663 54.1347 72.0081 54.0404C71.7532 53.6188 71.5133 53.3011 71.2916 53.0625C70.8261 52.532 70.38 52.3698 69.9803 52.2351C69.6472 52.119 69.3328 52.0126 69.0802 51.6889C68.9608 51.5257 68.8558 51.3007 68.7788 50.9972C68.7463 50.8616 68.7104 50.7273 68.6714 50.5944C68.4787 49.8643 68.2221 49.387 68.0028 49.085C67.6178 49.3789 67.2114 49.6591 66.8557 50.1161C66.1665 50.9562 65.7157 52.3445 64.9437 53.2094C64.1228 54.093 62.9376 54.471 62.0137 55.3815C61.9007 55.4889 61.7952 55.609 61.6902 55.7291C61.5205 55.3136 61.3377 54.9144 61.1239 54.5455C60.3245 53.1136 59.0894 52.194 58.4002 50.8376C57.7598 49.5193 57.621 47.7251 57.0691 46.4696C56.7903 45.7947 56.4061 45.3067 56.0492 44.8102C55.7233 45.0716 55.3077 45.5205 54.8961 46.2907C54.8212 46.4194 54.743 46.5628 54.6669 46.7133C54.4996 47.037 54.3215 47.2524 54.1435 47.3953C53.7831 47.6613 53.4107 47.6653 53.0178 47.6653H52.9837C52.4971 47.6582 51.9515 47.6663 51.2857 48.0935C50.9725 48.2794 50.6164 48.5545 50.2179 48.9386C50.1275 49.024 50.0341 49.104 49.938 49.1783C49.6418 49.4037 49.3384 49.5719 49.041 49.687C49.3273 50.0796 49.5942 50.4855 49.7409 50.9288C50.1525 52.0886 49.7397 53.4891 50.2365 54.7092C50.7853 55.9688 52.2921 57.0764 52.9508 58.4115C53.6129 59.6893 53.4936 61.1364 54.1249 62.4867C53.4579 63.2503 52.8104 64.0584 51.9924 64.6867C51.1422 65.3307 50.0791 65.8156 49.041 66.34C49.1703 66.6795 49.4538 67.0514 50.0161 67.3189C50.3178 67.4547 51.2746 67.6416 51.3234 67.6472C51.8912 67.743 52.1906 67.9502 52.356 68.2112C52.6613 68.6712 52.5879 69.3213 53.0059 69.83C53.3362 70.1913 54.0416 70.4942 55.314 70.59C56.0956 70.6275 56.8327 70.7603 57.3038 70.9411C57.9442 70.6305 58.5747 70.3194 59.1104 69.9698C59.3499 70.6797 59.6239 71.3926 60.0898 72.0918C60.6473 72.9071 61.4637 73.7071 62.2957 74.5132C62.8734 74.4965 63.5867 74.5933 64.4773 74.8654C64.5523 74.8912 64.636 74.916 64.7081 74.9338C65.4088 75.1299 65.9576 75.2109 66.3898 75.2109C66.8585 75.2109 67.1912 75.1157 67.4354 74.9657C68.0417 74.5441 68.1317 73.7613 68.598 73.3504C68.784 73.1796 69.0651 73.0748 69.4585 73.0748C69.6309 73.0759 69.8031 73.093 69.9736 73.1259L69.9633 73.1229C70.3951 73.2212 70.8566 73.2719 71.2151 73.2719C71.3087 73.2719 71.3955 73.2683 71.4728 73.2612C72.1783 73.1791 72.5958 72.8645 72.8329 72.5199C71.8016 71.4919 70.7329 70.4993 69.947 69.4069ZM70.0818 55.8289C70.2174 55.4135 70.3459 55.0203 70.5398 54.697C70.7067 54.4026 70.9478 54.1326 71.2036 53.8463L71.2892 53.7505C71.3983 53.8929 71.5085 54.052 71.6184 54.2258C71.3915 54.4482 71.177 54.6864 71.0109 54.9615C70.7309 55.4013 70.589 55.907 70.4514 56.3959C70.3011 56.9299 70.1595 57.4341 69.8558 57.7928C69.5211 58.1688 68.9878 58.452 68.4224 58.752C67.8676 59.0458 67.2939 59.3503 66.8406 59.78C66.3517 60.2274 66.0115 60.7848 65.6824 61.3244C65.5606 61.524 65.4393 61.7155 65.3144 61.9035C65.0848 61.6608 64.8556 61.4201 64.6308 61.1784C64.6776 61.1166 64.7256 61.0548 64.7716 60.9935C65.155 60.4848 65.517 60.004 65.9568 59.6498C66.3652 59.3103 66.889 59.0636 67.395 58.8249C68.0143 58.5331 68.6539 58.2311 69.1298 57.7361C69.6369 57.1883 69.8733 56.4658 70.0818 55.8289ZM63.2085 57.0627C63.6244 56.6999 64.1217 56.442 64.6026 56.1932C65.1732 55.8973 65.7645 55.5913 66.2466 55.0948C66.7399 54.5663 67.054 53.8853 67.3577 53.2266C67.5683 52.7696 67.7673 52.3374 68.0151 51.9883C68.1588 51.7843 68.3154 51.5958 68.4834 51.4249C68.5655 51.6625 68.6706 51.8692 68.8007 52.0476C68.9331 52.2168 69.0766 52.3399 69.2253 52.4352C69.07 52.6198 68.9265 52.8201 68.7963 53.0341C68.5413 53.4435 68.3645 53.9106 68.1932 54.3631C67.9608 54.9757 67.7415 55.5543 67.3589 55.9571C66.977 56.3397 66.4362 56.5879 65.8636 56.8514C65.3259 57.0982 64.7692 57.354 64.2815 57.7467C63.8191 58.108 63.4186 58.5782 63.034 59.0474C62.8294 58.6524 62.6445 58.2414 62.4804 57.8166C62.7148 57.5354 62.9527 57.2765 63.2085 57.0627ZM52.421 67.6001C52.1696 67.369 51.8274 67.2216 51.367 67.1436C51.3492 67.141 51.3175 67.135 51.275 67.1269C51.9091 66.7499 52.5407 66.3577 53.0598 65.9321C53.4896 65.5724 54.3374 64.8985 55.3117 64.1324C55.5321 64.3751 55.7649 64.6178 55.9996 64.861C55.1967 65.4913 54.5186 66.039 54.1566 66.3638C53.6796 66.7783 53.0693 67.1785 52.421 67.6001ZM55.96 66.0304C56.1119 65.7811 56.2907 65.5399 56.4596 65.3398C56.5453 65.4295 56.6301 65.5192 56.7146 65.6094C56.6698 65.6823 56.6246 65.7553 56.5706 65.8404C55.596 67.3209 53.793 67.9386 53.793 67.9386C55.0285 67.293 55.7062 66.4393 55.96 66.0304ZM57.7507 68.4645C57.1297 68.9904 56.3248 69.4535 55.473 69.9435L55.2411 70.0772C54.6273 70.0246 54.1943 69.9252 53.8889 69.8148C54.0253 69.7266 54.1617 69.64 54.2962 69.5544C54.9984 69.1065 55.6622 68.6834 56.1884 68.2203C56.5108 67.9305 57.0897 67.4542 57.7828 66.8994C57.8403 66.9825 57.8962 67.0655 57.9482 67.1497C58.1131 67.4081 58.2499 67.6705 58.3716 67.9355C58.1171 68.1493 57.9049 68.3302 57.7507 68.4645ZM66.3898 74.7042C65.9841 74.7042 65.4798 74.6247 64.8901 74.4661C64.7129 74.271 64.5333 74.0765 64.354 73.8834C63.6014 73.0687 62.8904 72.299 62.3988 71.541C61.9134 70.7765 61.6343 69.9916 61.3392 69.1607C61.0228 68.2714 60.6961 67.3518 60.1072 66.4849C59.5557 65.6534 58.7932 64.9223 58.0548 64.215C57.353 63.5421 56.6904 62.9067 56.2455 62.2369C55.8081 61.5559 55.5833 60.806 55.3454 60.0111C55.1197 59.2581 54.8866 58.4794 54.4643 57.7786C54.0674 57.0946 53.5043 56.5129 52.9599 55.95C52.3984 55.3694 51.8678 54.8206 51.5915 54.2486C51.3306 53.6761 51.304 53.0209 51.2762 52.3273C51.2512 51.7127 51.2263 51.0778 51.0367 50.4804C50.9134 50.0604 50.7147 49.6723 50.5022 49.2999C50.705 49.1055 50.9165 48.9267 51.1359 48.7643L51.233 48.9649C51.4483 49.4068 51.6517 49.8238 51.7683 50.2575C51.9004 50.7094 51.9412 51.2242 51.984 51.7694C52.0479 52.5821 52.1208 53.5033 52.5407 54.3347C52.9345 55.0801 53.5705 55.684 54.1851 56.2682C54.6959 56.7536 55.224 57.2552 55.6027 57.8283C56.0052 58.4191 56.2867 59.1274 56.5853 59.8773C56.9279 60.7397 57.2828 61.6314 57.8562 62.4289C58.4014 63.1656 59.1211 63.8106 59.8174 64.4349C60.547 65.0885 61.3012 65.7649 61.8444 66.5376C62.4329 67.3589 62.785 68.2568 63.1577 69.2078C63.4833 70.0392 63.8199 70.8981 64.3334 71.7361C64.7985 72.4794 65.4342 73.2389 66.1075 74.0435C66.2863 74.2568 66.4675 74.4742 66.6471 74.6921C66.5615 74.7004 66.4757 74.7045 66.3898 74.7042ZM64.4793 68.8891C63.6601 66.3476 63.0288 65.7046 60.6544 63.6394C58.4819 61.7333 58.2241 59.5069 58.2241 59.5069C58.6679 60.541 59.2904 61.8533 62.1026 64.2661C63.8933 65.7933 64.6744 67.8793 65.1161 69.3568C65.2934 69.9369 65.8303 71.2016 67.0516 72.4521C67.0512 72.4521 65.1832 71.003 64.4793 68.8891ZM70.0267 72.6233L70.0259 72.6253L70.0168 72.6218L69.9934 72.6177C69.816 72.5862 69.6372 72.5696 69.4581 72.5681C69.1528 72.5681 68.8879 72.6238 68.6658 72.7338C68.035 71.9677 67.4418 71.2426 67.0096 70.5556C66.5381 69.7905 66.1891 68.961 65.8513 68.1585C65.4262 67.1481 64.9861 66.1029 64.3013 65.166C63.6815 64.3006 62.8972 63.6059 62.1386 62.9346C61.4566 62.3311 60.8127 61.7606 60.3126 61.1009C59.796 60.4058 59.422 59.549 59.06 58.7205C58.7182 57.9372 58.3641 57.1275 57.8942 56.4567C57.4477 55.8026 56.891 55.2827 56.3521 54.7791C55.7732 54.238 55.226 53.7272 54.8977 53.1293C54.5587 52.4772 54.4635 51.7061 54.3632 50.8898C54.2906 50.3021 54.2161 49.6946 54.0452 49.1382C53.9456 48.7896 53.8069 48.4547 53.6593 48.1289C53.9038 48.0851 54.1394 47.9818 54.3533 47.8244C54.5647 47.6512 54.7493 47.4298 54.8981 47.1713C55.0622 47.4789 55.2157 47.795 55.3315 48.1254C55.5179 48.63 55.6281 49.2178 55.7451 49.8395C55.9104 50.7181 56.0813 51.6265 56.4937 52.4377C56.8958 53.1866 57.4747 53.7759 58.035 54.3454C58.5144 54.8333 59.0101 55.3375 59.3923 55.9424C59.796 56.5575 60.1084 57.3054 60.4387 58.0973C60.8158 59.0012 61.206 59.9356 61.7687 60.7478C62.3147 61.5179 63.0074 62.1715 63.6772 62.8034C64.3576 63.4458 65.0606 64.1091 65.6114 64.8965C66.1979 65.7147 66.615 66.6389 67.0567 67.6183C67.4656 68.5248 67.8886 69.4626 68.468 70.3438C68.9914 71.1276 69.6607 71.8891 70.3725 72.6907C70.2569 72.6712 70.1416 72.6487 70.0267 72.6233Z" fill="#DD2A1B"/>
<path d="M98.3903 69.4069C97.1552 67.67 96.562 65.5612 95.4132 63.8821C95.2795 63.6831 95.1396 63.491 94.9941 63.306C95.5314 62.4781 95.7606 61.5088 96.4323 60.7974C97.2222 59.9244 98.6659 59.4755 99.3519 58.6293C99.9883 57.7969 99.9134 56.5661 100.469 55.7605C100.672 55.4489 100.968 55.2042 101.275 54.9716C101.042 54.7863 100.827 54.5649 100.636 54.3124C100.571 54.2255 100.51 54.1347 100.451 54.0404C100.197 53.6188 99.9566 53.3011 99.735 53.0625C99.2694 52.532 98.8233 52.3698 98.4236 52.2351C98.0906 52.119 97.7761 52.0126 97.5235 51.6889C97.4042 51.5257 97.2991 51.3007 97.2222 50.9972C97.1896 50.8616 97.1538 50.7273 97.1147 50.5944C96.922 49.8643 96.6655 49.387 96.4462 49.085C96.0612 49.3789 95.6547 49.6591 95.299 50.1161C94.6099 50.9562 94.159 52.3445 93.387 53.2094C92.5662 54.093 91.381 54.471 90.4571 55.3815C90.3441 55.4889 90.2386 55.609 90.1335 55.7291C89.9638 55.3136 89.781 54.9144 89.5673 54.5455C88.7679 53.1136 87.5327 52.194 86.8435 50.8376C86.2032 49.5193 86.0644 47.7251 85.5124 46.4696C85.2337 45.7947 84.8494 45.3067 84.4926 44.8102C84.1666 45.0716 83.751 45.5205 83.3395 46.2907C83.2645 46.4194 83.1864 46.5628 83.1103 46.7133C82.9429 47.037 82.7649 47.2524 82.5869 47.3953C82.2264 47.6613 81.8541 47.6653 81.4611 47.6653H81.427C80.9405 47.6582 80.3949 47.6663 79.7291 48.0935C79.4158 48.2794 79.0598 48.5545 78.6613 48.9386C78.5709 49.024 78.4775 49.104 78.3813 49.1783C78.0851 49.4037 77.7818 49.5719 77.4844 49.687C77.7707 50.0796 78.0375 50.4855 78.1842 50.9288C78.5958 52.0886 78.1831 53.4891 78.6799 54.7092C79.2287 55.9688 80.7355 57.0764 81.3941 58.4115C82.0563 59.6893 81.9369 61.1364 82.5682 62.4867C81.9013 63.2503 81.2537 64.0584 80.4357 64.6867C79.5856 65.3307 78.5225 65.8156 77.4844 66.34C77.6136 66.6795 77.8972 67.0514 78.4594 67.3189C78.7612 67.4547 79.718 67.6416 79.7668 67.6472C80.3346 67.743 80.634 67.9502 80.7993 68.2111C81.1046 68.6712 81.0313 69.3213 81.4492 69.83C81.7795 70.1913 82.4849 70.4942 83.7574 70.59C84.5389 70.6275 85.2761 70.7603 85.7472 70.9411C86.3875 70.6305 87.018 70.3194 87.5537 69.9698C87.7932 70.6797 88.0672 71.3926 88.5331 72.0918C89.0906 72.9071 89.9071 73.7071 90.739 74.5132C91.3167 74.4965 92.0301 74.5933 92.9207 74.8654C92.9956 74.8912 93.0793 74.916 93.1515 74.9338C93.8521 75.1299 94.4009 75.2109 94.8331 75.2109C95.3018 75.2109 95.6345 75.1157 95.8788 74.9657C96.485 74.5441 96.5751 73.7613 97.0414 73.3504C97.2273 73.1796 97.5085 73.0748 97.9018 73.0748C98.0743 73.0759 98.2464 73.093 98.4169 73.1259L98.4066 73.1229C98.8384 73.2212 99.3 73.2719 99.6584 73.2719C99.752 73.2719 99.8388 73.2683 99.9162 73.2612C100.622 73.1791 101.039 72.8645 101.276 72.5199C100.245 71.4919 99.1763 70.4993 98.3903 69.4069ZM98.5252 55.8289C98.6608 55.4135 98.7892 55.0203 98.9831 54.697C99.1501 54.4026 99.3912 54.1326 99.6469 53.8463L99.7326 53.7505C99.8416 53.8929 99.9519 54.052 100.062 54.2258C99.8349 54.4482 99.6204 54.6864 99.4542 54.9615C99.1743 55.4013 99.0323 55.907 98.8947 56.3959C98.7444 56.9299 98.6029 57.4341 98.2991 57.7928C97.9645 58.1688 97.4311 58.452 96.8657 58.752C96.311 59.0458 95.7372 59.3503 95.284 59.78C94.7951 60.2274 94.4548 60.7848 94.1257 61.3244C94.004 61.524 93.8827 61.7155 93.7577 61.9035C93.5282 61.6608 93.299 61.4201 93.0741 61.1784C93.1209 61.1166 93.1689 61.0548 93.2149 60.9935C93.5983 60.4848 93.9604 60.004 94.4001 59.6498C94.8085 59.3103 95.3323 59.0636 95.8383 58.8249C96.4577 58.5331 97.0973 58.2311 97.5731 57.7361C98.0803 57.1883 98.3166 56.4658 98.5252 55.8289ZM91.6518 57.0627C92.0678 56.6999 92.565 56.442 93.046 56.1932C93.6166 55.8973 94.2078 55.5913 94.69 55.0948C95.1833 54.5663 95.4973 53.8853 95.801 53.2266C96.0116 52.7696 96.2106 52.3374 96.4585 51.9883C96.6021 51.7843 96.7588 51.5958 96.9268 51.4249C97.0089 51.6625 97.1139 51.8692 97.244 52.0476C97.3764 52.2168 97.52 52.3399 97.6687 52.4352C97.5133 52.6198 97.3698 52.8201 97.2396 53.0341C96.9847 53.4435 96.8078 53.9106 96.6365 54.3631C96.4042 54.9757 96.1849 55.5543 95.8022 55.9571C95.4204 56.3397 94.8795 56.5879 94.3069 56.8514C93.7692 57.0982 93.2125 57.354 92.7248 57.7467C92.2625 58.108 91.862 58.5782 91.4773 59.0474C91.2727 58.6524 91.0878 58.2414 90.9238 57.8166C91.1581 57.5354 91.396 57.2765 91.6518 57.0627ZM80.8644 67.6001C80.613 67.369 80.2708 67.2216 79.8104 67.1436C79.7925 67.141 79.7608 67.135 79.7184 67.1269C80.3524 66.7499 80.9841 66.3577 81.5032 65.9321C81.933 65.5724 82.7808 64.8985 83.755 64.1324C83.9755 64.3751 84.2082 64.6178 84.443 64.861C83.64 65.4913 82.962 66.039 82.5999 66.3638C82.1229 66.7783 81.5127 67.1785 80.8644 67.6001ZM84.4033 66.0304C84.5552 65.7811 84.734 65.5399 84.903 65.3398C84.9886 65.4295 85.0735 65.5192 85.1579 65.6094C85.1131 65.6823 85.0679 65.7553 85.014 65.8404C84.0393 67.3209 82.2363 67.9386 82.2363 67.9386C83.4719 67.293 84.1496 66.4393 84.4033 66.0304ZM86.194 68.4645C85.5731 68.9904 84.7681 69.4535 83.9164 69.9435L83.6844 70.0772C83.0706 70.0246 82.6376 69.9252 82.3323 69.8148C82.4687 69.7266 82.6051 69.64 82.7395 69.5544C83.4418 69.1065 84.1055 68.6834 84.6317 68.2203C84.9541 67.9304 85.533 67.4542 86.2262 66.8994C86.2837 66.9825 86.3396 67.0655 86.3915 67.1497C86.5565 67.4081 86.6933 67.6705 86.815 67.9355C86.5604 68.1493 86.3483 68.3302 86.194 68.4645ZM94.8331 74.7042C94.4275 74.7042 93.9231 74.6247 93.3335 74.4661C93.1562 74.271 92.9766 74.0765 92.7974 73.8834C92.0448 73.0687 91.3338 72.299 90.8421 71.541C90.3568 70.7765 90.0776 69.9916 89.7826 69.1607C89.4662 68.2714 89.1394 67.3518 88.5506 66.4849C87.999 65.6534 87.2365 64.9223 86.4982 64.215C85.7963 63.5421 85.1337 62.9067 84.6888 62.2369C84.2515 61.5559 84.0266 60.806 83.7887 60.0111C83.5631 59.2581 83.3299 58.4794 82.9076 57.7786C82.5107 57.0946 81.9477 56.5129 81.4032 55.95C80.8417 55.3694 80.3112 54.8206 80.0348 54.2486C79.7739 53.676 79.7473 53.0209 79.7196 52.3273C79.6946 51.7127 79.6696 51.0778 79.4801 50.4804C79.3568 50.0604 79.1581 49.6723 78.9456 49.2999C79.1483 49.1055 79.3599 48.9267 79.5792 48.7643L79.6764 48.9649C79.8917 49.4068 80.0951 49.8238 80.2117 50.2575C80.3437 50.7094 80.3846 51.2242 80.4274 51.7694C80.4912 52.5821 80.5642 53.5033 80.9841 54.3347C81.3779 55.0801 82.0139 55.684 82.6285 56.2682C83.1392 56.7536 83.6674 57.2552 84.0461 57.8283C84.4485 58.4191 84.7301 59.1274 85.0287 59.8773C85.3712 60.7397 85.7261 61.6314 86.2995 62.4289C86.8447 63.1656 87.5644 63.8106 88.2607 64.4349C88.9903 65.0885 89.7445 65.7649 90.2878 66.5376C90.8762 67.3589 91.2283 68.2568 91.601 69.2078C91.9266 70.0392 92.2632 70.8981 92.7767 71.7361C93.2419 72.4794 93.8775 73.2389 94.5508 74.0435C94.7296 74.2568 94.9108 74.4742 95.0905 74.6921C95.0048 74.7004 94.919 74.7045 94.8331 74.7042ZM92.9227 68.8891C92.1034 66.3476 91.4722 65.7046 89.0978 63.6394C86.9252 61.7333 86.6675 59.5069 86.6675 59.5069C87.1112 60.541 87.7337 61.8533 90.5459 64.2661C92.3366 65.7933 93.1178 67.8793 93.5595 69.3568C93.7367 69.9369 94.2736 71.2016 95.4949 72.4521C95.4945 72.4521 93.6265 71.003 92.9227 68.8891ZM98.47 72.6233L98.4692 72.6253L98.4601 72.6218L98.4367 72.6177C98.2593 72.5862 98.0805 72.5696 97.9014 72.5681C97.5961 72.5681 97.3312 72.6238 97.1092 72.7338C96.4783 71.9677 95.8851 71.2426 95.4529 70.5556C94.9814 69.7905 94.6325 68.961 94.2946 68.1585C93.8696 67.1481 93.4294 66.1029 92.7446 65.166C92.1249 64.3006 91.3405 63.6059 90.582 62.9346C89.9 62.3311 89.256 61.7606 88.756 61.1009C88.2393 60.4058 87.8654 59.549 87.5034 58.7205C87.1616 57.9372 86.8075 57.1275 86.3376 56.4567C85.8911 55.8026 85.3344 55.2827 84.7955 54.7791C84.2166 54.238 83.6694 53.7272 83.341 53.1293C83.002 52.4772 82.9068 51.7061 82.8065 50.8898C82.734 50.3021 82.6594 49.6946 82.4885 49.1382C82.389 48.7896 82.2502 48.4547 82.1027 48.1289C82.3471 48.0851 82.5827 47.9818 82.7966 47.8244C83.008 47.6512 83.1927 47.4298 83.3414 47.1713C83.5056 47.4789 83.6591 47.795 83.7748 48.1254C83.9612 48.63 84.0714 49.2178 84.1884 49.8395C84.3538 50.7181 84.5247 51.6265 84.9371 52.4377C85.3391 53.1866 85.9181 53.7759 86.4783 54.3454C86.9577 54.8333 87.4534 55.3375 87.8356 55.9424C88.2393 56.5575 88.5518 57.3054 88.8821 58.0973C89.2592 59.0012 89.6494 59.9356 90.212 60.7478C90.758 61.5179 91.4508 62.1715 92.1205 62.8034C92.8009 63.4458 93.504 64.1091 94.0547 64.8965C94.6412 65.7147 95.0583 66.6389 95.5001 67.6183C95.9089 68.5248 96.332 69.4626 96.9113 70.3438C97.4347 71.1276 98.104 71.8891 98.8158 72.6907C98.7002 72.6712 98.5849 72.6487 98.47 72.6233Z" fill="#DD2A1B"/>
<rect x="17.2539" y="113.058" width="15.9394" height="11.4545" stroke="#490C29" stroke-width="2"/>
<rect x="90.6973" y="113.058" width="15.9394" height="11.4545" stroke="#490C29" stroke-width="2"/>
<rect x="5.64258" y="98.1986" width="111.22" height="15.607" fill="#DD2A1B"/>
<path d="M1.03038 29.1433C1.54686 20.6671 8.58466 13.9525 17.1907 13.9525H105.315C113.921 13.9525 120.959 20.6671 121.476 29.1433H1.03038Z" stroke="#490C29" stroke-width="2"/>
<path d="M38.0216 11.9526C38.5282 6.10268 43.4374 1.51245 49.4187 1.51245H73.0892C79.0705 1.51245 83.9797 6.10268 84.4863 11.9526H38.0216Z" fill="#490C29" stroke="#490C29" stroke-width="2"/>
<rect x="10.832" y="30.1434" width="6.81322" height="68.0552" fill="#490C29"/>
<rect x="104.23" y="30.1434" width="6.81322" height="68.0552" fill="#490C29"/>
<rect x="16.2578" y="41.4193" width="89.9911" height="1.79394" fill="#490C29"/>
</svg>
