<svg width="126" height="126" viewBox="0 0 126 126" fill="none" xmlns="http://www.w3.org/2000/svg">
<path d="M49.6162 58.0516H41.4605L31.541 67.0123V104.431C31.541 107.738 33.8554 110.594 37.0907 111.28L39.4814 111.786L48.6477 112.932L49.6162 58.0516Z" fill="#490C29"/>
<path d="M88.1543 55.2959H87.1543H38.252C38.5599 56.1018 38.7363 56.9709 38.7363 57.8877C38.7363 62.5003 34.5617 66.0596 29.6641 66.0596C24.7623 66.0596 20.5801 62.5037 20.5801 57.8877C20.5801 56.9619 20.7627 56.0867 21.0738 55.2755C18.4085 53.8829 16.5449 51.2773 16.5449 48.2139C16.5449 47.4574 16.6687 46.7381 16.8804 46.0608C13.5034 43.6406 11.2969 39.8322 11.2969 35.5166C11.2969 29.6228 15.3776 24.7038 20.9542 22.9163C22.1143 15.4552 29.2582 9.87207 37.7109 9.87207H37.7207C41.0726 9.87207 44.192 10.7536 46.8247 12.2649C49.143 8.97649 53.2879 6.83496 57.957 6.83496H57.9707C62.3025 6.83496 66.1711 8.67599 68.5577 11.5614C70.2998 11.0849 72.0994 10.8455 73.9077 10.8506C79.3254 10.8509 84.1998 12.9088 86.6024 16.1375C87.0769 16.0735 87.5553 16.0402 88.0346 16.0381L88.0391 16.0381C93.2219 16.0381 97.7243 19.6102 97.7246 24.3677L88.1543 55.2959ZM88.1543 55.2959V54.2959V32.686M88.1543 55.2959V32.686M88.1543 32.686C93.2877 32.6344 97.7266 29.0849 97.7246 24.3682L88.1543 32.686ZM90.1992 41.6768V42.907L91.4035 42.6557C92.5946 42.407 98.61 41.2173 104.501 41.2992C107.455 41.3403 110.284 41.7012 112.439 42.5983C114.566 43.4834 115.92 44.8293 116.252 46.8398C116.872 50.5973 116.971 56.0671 116.675 61.5272C116.379 66.985 115.694 72.3357 114.784 75.8499L114.784 75.8505C112.214 85.8014 102.914 96.0913 91.1905 96.2159L90.2012 96.2264V97.2158V113.507C90.2012 114.221 89.649 115.089 87.9933 116.012C86.3878 116.907 84.0252 117.686 81.0949 118.322C75.2519 119.588 67.4131 120.229 59.5391 120.229C51.6651 120.229 43.8263 119.588 37.9832 118.322C35.053 117.686 32.6903 116.907 31.0849 116.012C29.4291 115.089 28.877 114.221 28.877 113.507V68.7178V67.8476L28.0152 67.7274C22.7105 66.9871 18.7444 62.8039 18.7441 57.8882C18.7447 57.4747 18.7735 57.0617 18.8303 56.6522L18.9089 56.086L18.461 55.731C16.1021 53.8614 14.709 51.1361 14.709 48.2139C14.709 47.8956 14.7249 47.5854 14.7608 47.2796L14.8212 46.7643L14.4347 46.4181C11.2714 43.5853 9.46094 39.6607 9.46094 35.5166C9.46094 29.6096 13.2131 24.2183 18.8861 21.7728L19.3357 21.579L19.4583 21.1051C21.4025 13.594 28.8023 8.0791 37.7246 8.0791L37.727 8.0791C40.4673 8.07256 43.1806 8.62154 45.7028 9.69287L46.3247 9.95701L46.8018 9.47864C49.5732 6.6999 53.5925 5.04199 57.9609 5.04199H57.9766C62.1583 5.04199 66.0527 6.57364 68.8289 9.19661L69.2011 9.54828L69.704 9.45183C71.0663 9.19057 72.4739 9.05762 73.9082 9.05762C79.3958 9.05762 84.2152 10.9314 87.1203 13.9415L87.4192 14.2512L87.8495 14.247L88.041 14.2451C88.0426 14.2451 88.0442 14.2451 88.0458 14.2451C94.5141 14.2474 99.5664 18.8971 99.5664 24.3701C99.5664 28.9752 95.9906 32.9739 90.9735 34.1362L90.1992 34.3155V35.1104V41.6768ZM31.7492 67.6687L30.9238 67.8151V68.6533V106.354C30.9238 108.009 32.2768 109.175 33.8365 109.984C35.4687 110.831 37.7321 111.506 40.3558 112.036C45.6214 113.098 52.5967 113.623 59.5391 113.623C66.4814 113.623 73.4567 113.098 78.7223 112.036C81.346 111.506 83.6094 110.831 85.2416 109.984C86.8014 109.175 88.1543 108.009 88.1543 106.354V58.0928V57.0928H87.1543H41.5723H40.5918L40.5725 58.073C40.4796 62.7755 36.7634 66.7794 31.7492 67.6687ZM90.1992 88.1064V89.1185L91.2112 89.1064C99.9359 89.0014 106.643 83.1658 108.36 76.3568C110.029 69.7543 111.577 59.583 110.484 52.7629C110.15 50.6777 108.615 49.5022 106.81 48.8989C105.029 48.304 102.816 48.1927 100.675 48.2911C96.3727 48.4888 91.9705 49.5576 90.9522 49.8171L90.1992 50.009V50.7861V88.1064Z" stroke="#490C29" stroke-width="2"/>
<mask id="path-3-inside-1" fill="white">
<path d="M66.3258 43.1654C62.3542 27.5278 43.6182 26.4575 34.7267 35.5133C29.8537 31.0206 18.9764 32.9454 17.3896 40.4285C22.2204 37.0062 31.6564 37.0766 35.2055 41.7054C44.8481 32.9454 57.8145 36.8653 62.4575 47.0478C62.4575 47.0478 69.9969 45.2733 76.7289 52.686C76.7242 47.7661 72.5883 43.6349 66.3258 43.1654Z"/>
</mask>
<path d="M66.3258 43.1654C62.3542 27.5278 43.6182 26.4575 34.7267 35.5133C29.8537 31.0206 18.9764 32.9454 17.3896 40.4285C22.2204 37.0062 31.6564 37.0766 35.2055 41.7054C44.8481 32.9454 57.8145 36.8653 62.4575 47.0478C62.4575 47.0478 69.9969 45.2733 76.7289 52.686C76.7242 47.7661 72.5883 43.6349 66.3258 43.1654Z" fill="#490C29"/>
<path d="M34.7267 35.5133L33.371 36.9837L34.7959 38.2974L36.1538 36.9145L34.7267 35.5133ZM17.3896 40.4285L15.4331 40.0136L14.3721 45.0173L18.5458 42.0605L17.3896 40.4285ZM35.2055 41.7054L33.6184 42.9224L34.9412 44.6476L36.5504 43.1858L35.2055 41.7054ZM62.4575 47.0478L60.6377 47.8776L61.3185 49.3706L62.9157 48.9946L62.4575 47.0478ZM76.7289 52.686L75.2484 54.0306L78.7339 57.8685L78.7289 52.6841L76.7289 52.686ZM68.2642 42.6731C66.0647 34.0126 59.7003 29.3196 52.7127 28.1087C45.8266 26.9154 38.2421 29.0783 33.2996 34.1121L36.1538 36.9145C40.1028 32.8925 46.332 31.0626 52.0297 32.05C57.6258 33.0197 62.6153 36.6807 64.3873 43.6578L68.2642 42.6731ZM36.0823 34.0429C33.0235 31.2227 28.3368 30.5709 24.3546 31.5363C20.3312 32.5117 16.4336 35.2954 15.4331 40.0136L19.3461 40.8434C19.9324 38.0785 22.2669 36.1583 25.297 35.4237C28.3684 34.6791 31.5569 35.3112 33.371 36.9837L36.0823 34.0429ZM18.5458 42.0605C20.5089 40.6697 23.6013 39.8931 26.6794 40.0453C29.7906 40.1992 32.3471 41.2643 33.6184 42.9224L36.7927 40.4885C34.5148 37.5177 30.5788 36.2332 26.8769 36.0502C23.1421 35.8656 19.1011 36.765 16.2335 38.7965L18.5458 42.0605ZM36.5504 43.1858C45.1118 35.408 56.5123 38.83 60.6377 47.8776L64.2772 46.2181C59.1168 34.9007 44.5845 30.4828 33.8607 40.2251L36.5504 43.1858ZM62.4575 47.0478C62.9157 48.9946 62.9146 48.9949 62.9136 48.9951C62.9133 48.9952 62.9123 48.9954 62.9117 48.9956C62.9105 48.9959 62.9094 48.9961 62.9084 48.9963C62.9064 48.9968 62.9049 48.9971 62.9038 48.9974C62.9015 48.9979 62.9011 48.998 62.9023 48.9977C62.9047 48.9972 62.914 48.9952 62.9298 48.9921C62.9615 48.9859 63.0194 48.9751 63.1014 48.9624C63.2656 48.9369 63.5253 48.9037 63.8649 48.8825C64.5456 48.8402 65.5371 48.847 66.7198 49.0565C69.0591 49.4709 72.2118 50.687 75.2484 54.0306L78.2095 51.3414C74.514 47.2723 70.531 45.6693 67.4175 45.1178C65.8739 44.8444 64.5598 44.8315 63.6164 44.8903C63.1441 44.9197 62.7622 44.9671 62.4878 45.0097C62.3504 45.0311 62.2397 45.0512 62.1577 45.0673C62.1167 45.0754 62.0828 45.0825 62.0563 45.0882C62.043 45.0911 62.0316 45.0936 62.0221 45.0958C62.0174 45.0968 62.0131 45.0978 62.0093 45.0987C62.0074 45.0991 62.0056 45.0996 62.0039 45.0999C62.0031 45.1001 62.0019 45.1004 62.0015 45.1005C62.0003 45.1008 61.9992 45.101 62.4575 47.0478ZM78.7289 52.6841C78.723 46.479 73.5238 41.6994 66.4753 41.171L66.1763 45.1598C71.6529 45.5704 74.7255 49.0532 74.7289 52.6879L78.7289 52.6841Z" fill="#490C29" mask="url(#path-3-inside-1)"/>
<mask id="path-5-inside-2" fill="white">
<path d="M53.5938 18.442C43.8303 11.4996 26.6336 15.5545 25.5635 30.7038C19.8416 32.163 16.6977 36.6733 17.5201 41.2367C22.5213 33.2552 29.8041 33.6709 29.8041 33.6709C32.4086 23.4696 43.7816 17.7124 54.1863 24.2567C56.7023 19.3838 65.4488 17.7743 70.4942 20.1576C67.7659 13.4806 57.3568 13.4762 53.5938 18.442Z"/>
</mask>
<path d="M53.5938 18.442C43.8303 11.4996 26.6336 15.5545 25.5635 30.7038C19.8416 32.163 16.6977 36.6733 17.5201 41.2367C22.5213 33.2552 29.8041 33.6709 29.8041 33.6709C32.4086 23.4696 43.7816 17.7124 54.1863 24.2567C56.7023 19.3838 65.4488 17.7743 70.4942 20.1576C67.7659 13.4806 57.3568 13.4762 53.5938 18.442Z" fill="#490C29"/>
<path d="M25.5635 30.7038L26.0577 32.6418L27.4568 32.285L27.5585 30.8447L25.5635 30.7038ZM17.5201 41.2367L15.5518 41.5915L16.4691 46.6808L19.2149 42.2986L17.5201 41.2367ZM29.8041 33.6709L29.6901 35.6676L31.3345 35.7615L31.7419 34.1656L29.8041 33.6709ZM54.1863 24.2567L53.1214 25.9497L54.9645 27.1089L55.9634 25.1743L54.1863 24.2567ZM70.4942 20.1576L69.6399 21.966L74.2915 24.1634L72.3456 19.4011L70.4942 20.1576ZM54.7528 16.812C49.2962 12.9321 41.8618 12.1625 35.6399 14.4072C29.3201 16.6872 24.1649 22.1192 23.5685 30.5629L27.5585 30.8447C28.0322 24.1391 32.0104 19.969 36.9973 18.1698C42.0822 16.3353 48.1279 17.0095 52.4348 20.0719L54.7528 16.812ZM25.0693 28.7658C18.5796 30.4209 14.5009 35.7606 15.5518 41.5915L19.4884 40.882C18.8944 37.5861 21.1037 33.9052 26.0577 32.6418L25.0693 28.7658ZM19.2149 42.2986C21.4543 38.7247 24.1489 37.0975 26.224 36.3393C27.2742 35.9555 28.1821 35.7891 28.812 35.7181C29.1262 35.6827 29.3687 35.6713 29.5218 35.6682C29.5982 35.6667 29.652 35.6672 29.6809 35.6678C29.6954 35.6681 29.7035 35.6684 29.7052 35.6684C29.706 35.6685 29.7052 35.6684 29.7027 35.6683C29.7014 35.6682 29.6998 35.6682 29.6977 35.6681C29.6966 35.668 29.6955 35.6679 29.6942 35.6679C29.6936 35.6678 29.6926 35.6678 29.6923 35.6678C29.6912 35.6677 29.6901 35.6676 29.8041 33.6709C29.918 31.6741 29.9169 31.6741 29.9158 31.674C29.9153 31.674 29.9141 31.6739 29.9133 31.6739C29.9116 31.6738 29.9098 31.6737 29.9078 31.6736C29.904 31.6734 29.8997 31.6732 29.8949 31.6729C29.8854 31.6725 29.874 31.672 29.8609 31.6715C29.8347 31.6704 29.8014 31.6694 29.7612 31.6686C29.681 31.667 29.5734 31.6663 29.441 31.669C29.1762 31.6744 28.8107 31.6929 28.364 31.7432C27.4721 31.8437 26.2467 32.0722 24.8511 32.5822C22.0345 33.6115 18.5871 35.7672 15.8253 40.1748L19.2149 42.2986ZM31.7419 34.1656C34.0352 25.1832 43.9472 20.1792 53.1214 25.9497L55.2511 22.5638C43.6161 15.2455 30.7819 21.7561 27.8662 33.1761L31.7419 34.1656ZM55.9634 25.1743C56.84 23.4765 58.9916 22.0842 61.836 21.4361C64.6472 20.7956 67.6177 21.0108 69.6399 21.966L71.3484 18.3493C68.3252 16.9211 64.3999 16.7494 60.9474 17.5361C57.5282 18.3151 54.0486 20.164 52.4092 23.3391L55.9634 25.1743ZM72.3456 19.4011C70.6055 15.1427 66.4805 13.1848 62.5577 12.9377C58.6779 12.6933 54.3953 14.0728 51.9997 17.234L55.1878 19.6499C56.5553 17.8453 59.3587 16.7442 62.3063 16.9298C65.2108 17.1128 67.6545 18.4956 68.6427 20.9142L72.3456 19.4011Z" fill="#490C29" mask="url(#path-5-inside-2)"/>
<path d="M74.6348 58.0517L88.1672 58.0515V103.597C88.1672 106.744 86.0663 109.505 83.0325 110.344L82.2224 110.568L75.3599 111.688L74.6348 58.0517Z" fill="#DD2A1B"/>
</svg>
