<svg width="152" height="97" viewBox="0 0 152 97" fill="none" xmlns="http://www.w3.org/2000/svg">
<path d="M4.93793 57.5027C2.57377 50.9823 7.40334 44.094 14.339 44.094H123.404C130.34 44.094 135.17 50.9824 132.805 57.5027L118.798 96.1357H18.9456L4.93793 57.5027Z" fill="#490C29"/>
<path d="M32.4591 17.9652L32.4669 17.9578L32.4745 17.9502C33.8807 16.5448 35.4684 15.3366 37.1945 14.3583C40.9388 12.4292 44.3163 12.8829 47.1912 14.5741C50.12 16.2969 52.5457 19.3254 54.1636 22.5145C57.4897 29.0705 58.345 35.1551 57.5689 39.9848C56.793 44.8127 54.4059 48.3321 51.2715 49.9647C49.8205 50.6164 48.2662 51.0016 46.6822 51.102C45.5324 51.1649 44.3987 51.4085 43.3223 51.824L43.2205 51.8633L43.1293 51.9238C42.168 52.562 41.3114 53.3473 40.5906 54.2514C39.5834 55.4902 38.3649 56.5383 36.9926 57.3462C33.8461 58.962 29.6204 58.861 25.285 56.6738C20.9495 54.4867 16.559 50.2295 13.2328 43.6734C11.0587 39.3881 10.3505 35.505 10.9027 32.352C11.447 29.2434 13.2284 26.7538 16.2561 25.1823C18.1326 24.3109 20.1091 23.6787 22.1396 23.3005L22.1538 23.2978L22.1679 23.2948C23.275 23.0551 24.372 22.7697 25.4561 22.4391L26.992 21.9709L25.9016 20.7936C24.5771 19.3637 22.8249 18.4077 20.9092 18.0699C19.3215 17.79 17.6929 17.9473 16.1929 18.5163L15.2784 16.7138C17.3475 15.8764 19.6267 15.6875 21.8126 16.1855C24.3247 16.7579 26.554 18.2012 28.1111 20.2636L28.7021 21.0463L29.4932 20.4624C30.5337 19.6946 31.5244 18.8604 32.4591 17.9652ZM50.2621 48.2204L50.3015 48.2041L50.3394 48.1845C53.3547 46.6245 55.2971 43.2047 55.7764 38.8794C56.2577 34.5364 55.2901 29.1693 52.3813 23.4358C51.9098 22.5063 50.3887 19.7333 48.0115 17.6567C46.8157 16.6122 45.3598 15.7052 43.6704 15.3299C41.9589 14.9496 40.0755 15.1311 38.0871 16.159L38.0647 16.1706L38.0429 16.1833C36.4771 17.0956 35.0361 18.21 33.7567 19.4983C32.3745 20.8736 30.8226 22.0644 29.1394 23.0413L28.3102 23.4699C26.5022 24.2869 24.6047 24.8847 22.6579 25.2506C20.7886 25.5913 18.9665 26.1592 17.2316 26.9418L17.2073 26.9527L17.1836 26.965C15.3807 27.897 14.197 29.1739 13.5032 30.6441C12.8167 32.0988 12.6398 33.6776 12.7328 35.1872C12.9174 38.1823 14.1781 41.1021 15.0151 42.7521C17.9239 48.4855 21.6729 52.4149 25.4459 54.5588C29.2022 56.6932 33.0857 57.1007 36.1032 55.5438C36.1043 55.5433 36.1054 55.5427 36.1065 55.5421L36.1068 55.542L35.6766 54.6938L36.177 55.5016C37.3268 54.7776 38.3479 53.864 39.1974 52.7995C40.0708 51.7158 41.1262 50.7946 42.3151 50.0781C43.5883 49.5215 44.948 49.1942 46.3323 49.1114C47.6819 49.0393 49.0105 48.738 50.2621 48.2204Z" stroke="#490C29" stroke-width="2"/>
<path d="M29.0944 15.1633L27.3149 16.0832L26.4078 14.2954C25.9278 13.3469 25.8419 12.2439 26.169 11.2287C26.4962 10.2134 27.2096 9.3687 28.1527 8.87997L29.9322 7.96009L30.8392 9.74792C31.3193 10.6964 31.4051 11.7994 31.078 12.8146C30.7509 13.8299 30.0375 14.6746 29.0944 15.1633Z" fill="#490C29"/>
<path d="M148.046 13.9401L148.067 13.9889L148.092 14.0353C149.693 16.9433 150.396 19.3582 150.455 21.4338C150.514 23.4921 149.942 25.2888 148.867 26.9798C147.78 28.6891 146.173 30.2969 144.157 31.9387C142.14 33.5806 139.767 35.2147 137.171 37.002C136.366 37.5554 135.538 38.1257 134.692 38.7154L134.691 38.7156C129.673 42.2157 126.136 46.0377 123.345 49.0541L123.328 49.0727L123.328 49.0727C121.885 50.6324 120.669 51.9424 119.519 52.9429C118.37 53.942 117.368 54.5589 116.381 54.8079L116.216 54.8496L116.074 54.9436C115.138 55.5627 114.01 55.9565 112.692 56.0844L112.691 56.0845C109.988 56.351 107.274 56.4851 104.559 56.4865C100.505 56.4865 96.2932 56.1876 91.2948 55.5458C90.0272 55.382 89.0064 54.8946 88.2116 54.1262C87.4103 53.3513 86.7875 52.2405 86.4112 50.7558L86.4111 50.7554C85.6483 47.7514 86.0416 43.6076 87.2756 39.5647C88.5077 35.5278 90.5217 31.777 92.8172 29.5304L92.861 29.4875L92.8993 29.4396C94.3948 27.566 95.9015 26.43 97.0724 25.5549C97.0724 25.5549 97.0724 25.5549 97.0725 25.5549L97.0818 25.5479C97.3992 25.3108 97.7512 25.0477 98.0402 24.8056C98.1865 24.6831 98.334 24.5516 98.4609 24.4191C98.5708 24.3045 98.7374 24.1166 98.8421 23.88C100.03 21.1962 102.38 19.2287 104.708 17.8598C107.023 16.4984 109.21 15.7915 109.916 15.583L109.916 15.5828C111.753 15.0396 112.634 14.126 113.496 13.2317L113.509 13.218L113.51 13.2178L113.524 13.2025C114.41 12.2842 115.241 11.4229 116.958 10.7875C118.73 10.1317 121.517 9.69547 126.321 9.89912L126.342 9.90002H126.363C126.623 9.90002 126.876 9.81999 127.026 9.76797C127.207 9.70521 127.403 9.62283 127.592 9.53718C127.969 9.36654 128.391 9.1506 128.744 8.9704L128.749 8.968C128.749 8.96795 128.749 8.96791 128.749 8.96786C130.106 8.27493 131.631 7.50548 133.277 7.26264L133.277 7.26262C134.139 7.13533 134.997 7.07104 135.828 7.07104C142.724 7.07104 146.967 11.369 148.046 13.9401ZM99.51 23.3216L99.1334 23.47L98.9757 23.8171L98.9737 23.8209C98.9628 23.8414 98.9389 23.8866 98.9142 23.9479C98.8316 24.1257 98.682 24.3234 98.4263 24.5767L96.152 26.8305L99.3047 26.2717C100.061 26.1377 100.822 26.0635 101.59 26.0635C107.055 26.0635 112.58 29.4514 115.927 35.0494L115.927 35.0505C117.162 37.1097 118.111 39.3307 118.747 41.6511L119.172 43.2004L120.374 42.1355C127.756 35.5996 134.315 31.8717 139.282 29.0552L139.309 29.04C141.335 27.8914 143.089 26.8968 144.513 25.9449C145.941 24.9903 147.113 24.0299 147.924 22.9214C148.758 21.7833 149.187 20.5222 149.184 19.0332C149.181 17.5791 148.765 15.952 147.999 14.0532L147.999 14.0531C147.032 11.655 142.849 7.17461 135.829 7.17461C135.163 7.17461 134.49 7.22779 133.833 7.30427L133.827 8.59862C133.559 8.5539 133.295 8.52463 133.036 8.50857C131.912 8.439 130.847 8.63383 129.954 8.79713C129.669 8.84933 129.401 8.89832 129.155 8.93441L128.998 8.95737L128.856 9.0277L128.797 9.05676L128.797 9.0567L128.786 9.06228C128.2 9.36161 127.729 9.601 127.307 9.76988C126.896 9.9341 126.605 10.0003 126.382 10.0035C125.48 9.96793 124.72 9.95105 124.009 9.95105C118.732 9.95105 116.406 10.8236 114.794 12.1333L115.602 13.4118C115.57 13.4214 115.539 13.4309 115.508 13.4404C114.81 13.6519 114.175 13.8445 113.512 13.9761L113.377 14.003L113.254 14.0654C112.936 14.2268 112.73 14.3033 112.579 14.3492L112.404 14.4025L112.259 14.5143C111.679 14.9626 110.961 15.3793 109.936 15.6822C109.336 15.8589 107.755 16.3689 105.942 17.2911C104.138 18.2091 102.042 19.5666 100.473 21.4643L101.525 22.6622C101.181 22.7527 100.838 22.8343 100.489 22.9033L100.356 22.9298L100.234 22.9909C99.9402 23.1389 99.7017 23.2461 99.51 23.3216ZM122.107 12.8121C124.251 13.0028 126.423 14.0256 128.118 15.3884C129.129 16.2012 129.925 17.0991 130.42 17.9423C130.56 18.1789 130.67 18.4021 130.755 18.6107C129.924 17.6319 128.723 16.2993 127.027 14.8835L126.967 14.8332L126.899 14.7929C125.095 13.7136 123.523 13.1035 122.107 12.8121ZM103.174 22.1837C103.149 22.1913 103.124 22.1989 103.099 22.2064C105.001 21.2571 107.438 20.512 109.9 20.7119L109.98 20.7184L110.06 20.712C113.531 20.4359 117.224 21.9998 119.966 24.2034C121.328 25.2984 122.41 26.5155 123.09 27.6721C123.611 28.5587 123.857 29.34 123.881 29.9754C123.806 29.8853 123.727 29.7905 123.644 29.6912C122.553 28.3821 120.811 26.2911 118.11 24.0356L118.05 23.9852L117.982 23.9448C113.704 21.386 110.455 20.8589 107.626 21.1557C106.237 21.3014 104.984 21.6421 103.824 21.9879C103.603 22.0537 103.387 22.1193 103.174 22.1837ZM115.726 35.1777L115.726 35.1777C112.493 29.7695 107.106 26.3079 101.587 26.3079C98.8725 26.3079 96.269 27.1567 94.0664 28.7633C91.4309 30.6853 89.1973 34.6213 87.8151 38.7137C86.4295 42.8161 85.7958 47.3818 86.6363 50.692C86.9629 51.9789 87.4939 53.0604 88.2943 53.8649C89.1069 54.6816 90.1325 55.1473 91.3209 55.3006L91.3213 55.3007C99.5741 56.3625 105.671 56.5175 112.669 55.8396L112.67 55.8395C115.195 55.5937 117.103 54.3406 118.208 52.1321L118.208 52.1319C119.289 49.9734 119.501 47.1449 119.052 44.2071C118.6 41.2509 117.464 38.0841 115.726 35.1777ZM118.996 50.745L120.664 51.7345C121.551 50.8397 122.419 49.9266 123.269 48.9957C126.13 45.9043 129.628 42.1271 134.646 38.6281C135.491 38.0406 136.318 37.4696 137.126 36.9135C140.554 34.5533 143.605 32.4509 145.881 30.3011C148.168 28.1406 149.781 25.8332 150.19 23.0259L148.342 22.3687C147.633 23.5563 146.502 24.626 144.954 25.724C143.405 26.8235 141.511 27.9017 139.32 29.144L139.32 29.144C134.225 32.0333 127.296 35.9754 119.553 43.0024L119.15 43.3684L119.239 43.9056C119.658 46.4489 119.573 48.8062 118.996 50.745Z" stroke="#490C29" stroke-width="2"/>
<path d="M92.1441 48.9068L92.1401 48.9066C91.9579 48.8962 91.7686 48.8898 91.573 48.8898C89.1345 48.8898 86.2906 49.7963 83.464 50.6972C83.2328 50.7709 83.0017 50.8446 82.771 50.9177C79.63 51.9131 76.4492 52.8521 73.399 52.8521C62.5269 52.8521 55.7148 46.5306 55.7148 39.3805C55.7148 34.6631 59.0564 30.6559 64.7426 27.7732C70.4068 24.9016 78.1833 23.2768 86.4778 23.2768C95.6663 23.2768 103.401 25.5426 108.807 29.1906C114.205 32.8333 117.241 37.8141 117.241 43.3276C117.241 52.1592 112.561 55.4842 108.899 55.4842C106.679 55.4842 105.045 55.1211 103.731 54.5915C102.41 54.0591 101.368 53.3417 100.326 52.5614C100.151 52.4311 99.9772 52.2987 99.8017 52.1654C97.8753 50.7023 95.806 49.1307 92.1441 48.9068Z" stroke="#490C29" stroke-width="2"/>
<path d="M108.9 47.5676C104.656 47.5676 102.767 46.1327 100.576 44.4737C98.5785 42.959 96.314 41.2448 92.2465 40.994C92.0225 40.9803 91.7982 40.9733 91.5738 40.9731C88.8964 40.9731 86.0097 41.891 82.9548 42.8659C79.7561 43.8826 76.449 44.9355 73.4016 44.9355C63.6579 44.9355 56.5859 39.4014 56.5859 31.7788C56.5859 21.5241 71.9891 15.9901 86.4805 15.9901C103.803 15.9901 116.375 24.2892 116.375 35.726C116.373 44.4128 111.902 47.5676 108.9 47.5676Z" fill="#DD2A1B"/>
<path d="M86.4779 17.3069C102.716 17.3069 114.504 25.053 114.504 35.7257C114.504 43.601 110.655 46.2502 108.899 46.2502C105.472 46.2502 104.069 45.1878 101.943 43.5763C99.8259 41.9723 97.1914 39.975 92.4064 39.6823C92.129 39.6648 91.851 39.6559 91.5731 39.6557C88.4939 39.6557 85.4279 40.6325 82.1843 41.6645C79.1649 42.6261 76.0447 43.6181 73.399 43.6181C65.9702 43.6181 58.4517 39.5493 58.4517 31.7785C58.4517 22.3791 72.8927 17.3069 86.4779 17.3069ZM86.4779 14.6748C69.6622 14.6748 54.7148 21.2521 54.7148 31.7785C54.7148 39.6728 62.1885 46.2502 73.399 46.2502C79.8525 46.2502 86.6853 42.2878 91.5731 42.2878C91.7468 42.2878 91.9169 42.2935 92.0832 42.303C99.3868 42.7496 99.5568 48.8822 108.899 48.8822C113.273 48.8822 118.241 44.9351 118.241 35.7257C118.241 23.8842 105.162 14.6748 86.4779 14.6748Z" fill="#490C29"/>
<path d="M99.5566 27.8317C99.5566 30.7375 96.2103 33.0941 92.083 33.0941C87.9557 33.0941 84.6094 30.7375 84.6094 27.8317C84.6094 24.9259 87.9557 22.5693 92.083 22.5693C96.2103 22.5693 99.5566 24.9259 99.5566 27.8317Z" fill="#490C29"/>
</svg>
