<svg width="125" height="126" viewBox="0 0 125 126" fill="none" xmlns="http://www.w3.org/2000/svg">
<path d="M45.6163 36.8036H79.0729V26.288C80.9147 26.288 82.681 25.5564 83.9834 24.254C85.2857 22.9517 86.0173 21.1853 86.0173 19.3436C86.0173 17.5018 85.2857 15.7354 83.9834 14.4331C82.681 13.1308 80.9147 12.3991 79.0729 12.3991C77.5521 12.3991 76.158 12.9026 75.0139 13.729C75.6049 12.7006 75.9195 11.5366 75.9271 10.3505C75.9271 8.50873 75.1954 6.74238 73.8931 5.44005C72.5908 4.13771 70.8244 3.40607 68.9826 3.40607C65.8229 3.40607 63.184 5.53107 62.3437 8.41996C61.5035 5.53107 58.8663 3.4078 55.7066 3.4078C53.8648 3.4078 52.0985 4.13945 50.7961 5.44178C49.4938 6.74412 48.7621 8.51047 48.7621 10.3522C48.7621 11.5849 49.1094 12.7255 49.6736 13.729C48.4961 12.8672 47.0755 12.4015 45.6163 12.3991C43.7745 12.3991 42.0082 13.1308 40.7059 14.4331C39.4035 15.7354 38.6719 17.5018 38.6719 19.3436C38.6719 21.1853 39.4035 22.9517 40.7059 24.254C42.0082 25.5564 43.7745 26.288 45.6163 26.288" fill="#DD2A1B"/>
<path d="M95.2222 100.842C95.2222 100.842 98.6945 78.6162 77.8611 78.6162C72.3195 82.3107 67.5729 84.8645 62.2361 84.8523H62.4531C57.1163 84.8645 52.3698 82.3107 46.8281 78.6162C25.9948 78.6162 29.467 100.842 29.467 100.842" fill="#490C29"/>
<path d="M45.4865 36.7394C43.6914 40.4494 42.6602 44.7984 42.6602 49.4494C42.6602 63.0397 51.4727 74.0554 62.3442 74.0554C73.2157 74.0554 82.0317 63.0397 82.0317 49.4494C82.0317 44.7984 80.9987 40.4494 79.2053 36.7411" stroke="#490C29" stroke-width="2" stroke-miterlimit="10" stroke-linecap="round" stroke-linejoin="round"/>
<path d="M95.3294 100.906C94.869 100.906 94.4274 100.723 94.1018 100.397C93.7762 100.072 93.5933 99.6302 93.5933 99.1698V93.9614C93.5933 86.234 85.7877 80.4024 78.5742 80.0864C67.8016 88.7878 56.8867 88.7878 46.1141 80.0864C38.9006 80.4024 31.0933 86.2323 31.0933 93.9614V99.1698C31.0933 99.6302 30.9104 100.072 30.5848 100.397C30.2592 100.723 29.8176 100.906 29.3572 100.906C28.8968 100.906 28.4552 100.723 28.1296 100.397C27.804 100.072 27.6211 99.6302 27.6211 99.1698V93.9614C27.6211 84.7184 36.5447 76.6056 46.7183 76.6003C47.1244 76.6005 47.5176 76.743 47.8294 77.0031C57.595 85.142 67.0916 85.142 76.8572 77.0031C77.1691 76.743 77.5622 76.6005 77.9683 76.6003C88.1419 76.6056 97.0655 84.7184 97.0655 93.9614V99.1698C97.0655 99.6302 96.8826 100.072 96.557 100.397C96.2314 100.723 95.7899 100.906 95.3294 100.906Z" fill="#490C29"/>
<path d="M46.1133 80.0867C46.1133 80.0867 52.4761 98.9374 81.1254 88.9356V99.1353" stroke="#490C29" stroke-width="2" stroke-miterlimit="10" stroke-linecap="round" stroke-linejoin="round"/>
<path d="M49.3229 100.038C50.7612 100.038 51.9271 98.8719 51.9271 97.4336C51.9271 95.9954 50.7612 94.8295 49.3229 94.8295C47.8847 94.8295 46.7188 95.9954 46.7188 97.4336C46.7188 98.8719 47.8847 100.038 49.3229 100.038Z" fill="#490C29"/>
<path d="M75.3639 100.038C76.8022 100.038 77.9681 98.8719 77.9681 97.4336C77.9681 95.9954 76.8022 94.8295 75.3639 94.8295C73.9257 94.8295 72.7598 95.9954 72.7598 97.4336C72.7598 98.8719 73.9257 100.038 75.3639 100.038Z" fill="#490C29"/>
<path d="M45.4714 36.7393C44.3012 39.1817 43.4873 41.7794 43.0547 44.4529L43.1658 43.8279C43.1658 43.8279 48.8776 44.9025 57.8481 37.2949" stroke="#490C29" stroke-width="2" stroke-miterlimit="10" stroke-linecap="round" stroke-linejoin="round"/>
<path d="M78.8615 36.7393C80.0329 39.1815 80.848 41.7792 81.2817 44.4529L81.1706 43.8279C81.1706 43.8279 75.4588 44.9025 66.4883 37.2949" stroke="#490C29" stroke-width="2" stroke-miterlimit="10" stroke-linecap="round" stroke-linejoin="round"/>
<path d="M45.6152 26.2879V36.8035" stroke="#490C29" stroke-width="2" stroke-miterlimit="10" stroke-linecap="round" stroke-linejoin="round"/>
<path d="M45.6163 36.8036H79.0729V26.288C80.9147 26.288 82.681 25.5564 83.9834 24.254C85.2857 22.9517 86.0173 21.1853 86.0173 19.3436C86.0173 17.5018 85.2857 15.7354 83.9834 14.4331C82.681 13.1308 80.9147 12.3991 79.0729 12.3991C77.5521 12.3991 76.158 12.9026 75.0139 13.729C75.6049 12.7006 75.9195 11.5366 75.9271 10.3505C75.9271 8.50873 75.1954 6.74238 73.8931 5.44005C72.5908 4.13771 70.8244 3.40607 68.9826 3.40607C65.8229 3.40607 63.184 5.53107 62.3437 8.41996C61.5035 5.53107 58.8663 3.4078 55.7066 3.4078C53.8648 3.4078 52.0985 4.13945 50.7961 5.44178C49.4938 6.74412 48.7621 8.51047 48.7621 10.3522C48.7621 11.5849 49.1094 12.7255 49.6736 13.729C48.4961 12.8672 47.0755 12.4015 45.6163 12.3991C43.7745 12.3991 42.0082 13.1308 40.7059 14.4331C39.4035 15.7354 38.6719 17.5018 38.6719 19.3436C38.6719 21.1853 39.4035 22.9517 40.7059 24.254C42.0082 25.5564 43.7745 26.288 45.6163 26.288" stroke="#490C29" stroke-width="2" stroke-miterlimit="10" stroke-linecap="round" stroke-linejoin="round"/>
</svg>
