<svg width="125" height="126" viewBox="0 0 125 126" fill="none" xmlns="http://www.w3.org/2000/svg">
<path d="M101.942 49.1907L101.642 48.8046H101.153H88.236H87.236V49.8046V62.8255V63.8255H88.236H111.279H113.324L112.069 62.2116L101.942 49.1907ZM6.56934 87.8671V31.5755C6.56934 26.3389 10.7275 22.1588 15.9027 22.1588H87.236V41.9921V42.9921H88.236H103.234L118.236 63.1567V87.8671H108.903H107.903V88.8671C107.903 96.9683 101.419 103.492 93.4027 103.492C85.3858 103.492 78.9027 96.9683 78.9027 88.8671V87.8671H77.9027H46.9027H45.9027V88.8671C45.9027 96.9683 39.4195 103.492 31.4027 103.492C23.3858 103.492 16.9027 96.9683 16.9027 88.8671V87.8671H15.9027H6.56934ZM15.9027 30.5755H14.9027V31.5755V78.4505V79.4505H15.9027H19.8293H20.2765L20.5747 79.1171C23.2379 76.1396 27.1053 74.2421 31.4027 74.2421C35.7 74.2421 39.5675 76.1396 42.2306 79.1171L42.5288 79.4505H42.976H77.9027H78.9027V78.4505V31.5755V30.5755H77.9027H15.9027ZM93.4027 97.6796C98.2508 97.6796 102.153 93.7347 102.153 88.8671C102.153 83.9995 98.2508 80.0546 93.4027 80.0546C88.5545 80.0546 84.6527 83.9995 84.6527 88.8671C84.6527 93.7348 88.5545 97.6796 93.4027 97.6796ZM31.4027 97.6796C36.2508 97.6796 40.1527 93.7348 40.1527 88.8671C40.1527 83.9995 36.2508 80.0546 31.4027 80.0546C26.5545 80.0546 22.6527 83.9995 22.6527 88.8671C22.6527 93.7347 26.5545 97.6796 31.4027 97.6796Z" stroke="#490C29" stroke-width="2"/>
<circle cx="31.3027" cy="88.912" r="8" fill="#490C29"/>
<circle cx="93.4385" cy="88.912" r="8" fill="#490C29"/>
<path d="M87.8945 49.8262H101.12L111.354 62.8255H87.8945V49.8262Z" fill="#DD2A1B"/>
<path d="M70.5235 58.0936C71.4998 57.1173 71.4998 55.5344 70.5235 54.5581L54.6136 38.6482C53.6373 37.6719 52.0544 37.6719 51.0781 38.6482C50.1017 39.6245 50.1017 41.2074 51.0781 42.1837L65.2202 56.3259L51.0781 70.468C50.1017 71.4443 50.1017 73.0272 51.0781 74.0035C52.0544 74.9798 53.6373 74.9798 54.6136 74.0035L70.5235 58.0936ZM23.4189 58.8259H68.7557V53.8259H23.4189V58.8259Z" fill="#490C29"/>
</svg>
