<svg width="127" height="127" viewBox="0 0 127 127" fill="none" xmlns="http://www.w3.org/2000/svg">
<rect x="6.70312" y="10.4926" width="11.1102" height="17.6338" rx="4" stroke="#490C29" stroke-width="2"/>
<rect x="90.2012" y="71.9716" width="3.79798" height="56.9697" transform="rotate(-15 90.2012 71.9716)" fill="#490C29"/>
<rect x="32.266" y="83.7538" width="2.79798" height="78.1245" transform="rotate(-65 32.266 83.7538)" stroke="#490C29"/>
<rect x="94.264" y="80.5849" width="2.79798" height="78.1245" transform="rotate(65 94.264 80.5849)" stroke="#490C29"/>
<rect x="32.7285" y="70.9885" width="3.79798" height="56.9697" transform="rotate(15 32.7285 70.9885)" fill="#490C29"/>
<rect x="17.9844" y="120.67" width="6.32996" height="6.32996" rx="2" fill="#490C29"/>
<rect x="102.285" y="120.67" width="6.32996" height="6.32996" rx="2" fill="#490C29"/>
<path fill-rule="evenodd" clip-rule="evenodd" d="M0 24.04C0 58.9994 28.3402 87.3396 63.2996 87.3396C98.259 87.3396 126.599 58.9994 126.599 24.04H0Z" fill="#490C29"/>
<path fill-rule="evenodd" clip-rule="evenodd" d="M0.813129 34.2129C0.278082 30.901 2.04216e-06 27.503 0 24.04L126.599 24.04C126.599 27.5029 126.321 30.9009 125.786 34.2129L0.813129 34.2129Z" fill="#DD2A1B"/>
<circle cx="56.9207" cy="29.1265" r="1.53198" stroke="#490C29" stroke-width="2"/>
<circle cx="68.3132" cy="29.1265" r="1.53198" stroke="#490C29" stroke-width="2"/>
<circle cx="79.7078" cy="29.1265" r="1.53198" stroke="#490C29" stroke-width="2"/>
<circle cx="91.1023" cy="29.1265" r="1.53198" stroke="#490C29" stroke-width="2"/>
<path d="M50.6778 2C48.971 3.50612 46.5815 7.30154 50.6778 10.4343C54.7741 13.567 52.3846 16.7599 50.6778 17.9648" stroke="#490C29" stroke-width="3"/>
<path d="M59.6329 2C57.9261 3.50612 55.5366 7.30154 59.6329 10.4343C63.7292 13.567 61.3397 16.7599 59.6329 17.9648" stroke="#490C29" stroke-width="3"/>
<path d="M68.586 2C66.8792 3.50612 64.4897 7.30154 68.586 10.4343C72.6823 13.567 70.2928 16.7599 68.586 17.9648" stroke="#490C29" stroke-width="3"/>
<path d="M77.5411 2C75.8343 3.50612 73.4448 7.30154 77.5411 10.4343C81.6374 13.567 79.2479 16.7599 77.5411 17.9648" stroke="#490C29" stroke-width="3"/>
</svg>
