<svg width="30" height="31" viewBox="0 0 30 31" fill="none" xmlns="http://www.w3.org/2000/svg">
<path d="M25.55 18.4846H21.8V20.3846H25.55C26.05 20.3846 26.5 20.7846 26.5 21.3346C26.5 21.8846 26.1 22.2846 25.55 22.2846H2.15019C1.65019 22.2846 1.2002 22.6846 1.2002 23.2346C1.2002 23.7346 1.60019 24.1846 2.15019 24.1846H25.6C27.15 24.1846 28.3999 22.9346 28.3999 21.3846C28.3999 19.7346 27.1 18.4846 25.55 18.4846" fill="#B2C1C0"/>
<path d="M26.2499 12.0346L24.3999 11.8846C24.3999 11.8346 25.5499 4.98463 25.7999 3.58464C25.9499 2.78465 26.2499 0.534668 29.0999 0.534668V2.43465C27.9499 2.43465 27.7999 2.88465 27.6999 3.73464C27.3999 5.13463 26.2499 11.9346 26.2499 12.0346Z" fill="#B2C1C0"/>
<path d="M26.35 5.33472H1.00018C0.0501861 5.33472 -0.0998126 6.23471 0.0501861 6.7347L2.90016 19.4346C3.05016 19.9346 3.55015 20.3346 4.10015 20.3346H24C24.5 20.3346 25 19.9346 25.1 19.3846L27.1999 6.23471C27.2499 5.78471 26.8499 5.33472 26.35 5.33472V5.33472ZM2.45016 9.58468L1.95017 7.6847C1.90017 7.4347 2.05017 7.2347 2.30017 7.2347H5.85013C6.10013 7.2347 6.35013 7.4347 6.35013 7.6847L6.55013 9.58468C6.60013 9.83468 6.40013 10.0347 6.15013 10.0347H3.00016C2.75016 10.0347 2.50016 9.83468 2.45016 9.58468ZM4.05015 14.2346C3.80015 14.2346 3.55015 14.0346 3.45016 13.7846L3.10016 12.3347C3.05016 12.0847 3.20016 11.8847 3.45016 11.8847H6.30013C6.55013 11.8847 6.80013 12.0847 6.80013 12.3347L6.95012 13.7346C7.00012 13.9846 6.80013 14.1846 6.55013 14.1846C6.60013 14.2346 4.05015 14.2346 4.05015 14.2346V14.2346ZM7.05012 18.4846H5.10014C4.85014 18.4846 4.60015 18.2846 4.50015 18.0346L4.15015 16.5846C4.10015 16.3346 4.25015 16.1346 4.50015 16.1346H6.75013C7.00012 16.1346 7.25012 16.3346 7.25012 16.5846L7.40012 17.9846C7.50012 18.2346 7.30012 18.4846 7.05012 18.4846ZM12.8001 17.9846C12.8001 18.2346 12.6001 18.4346 12.3501 18.4346H9.9001C9.6501 18.4346 9.4001 18.2346 9.4001 17.9846L9.2501 16.5846C9.2001 16.3346 9.4001 16.1346 9.6501 16.1346H12.3501C12.6001 16.1346 12.8001 16.3346 12.8001 16.5846V17.9846ZM12.8001 13.7846C12.8001 14.0346 12.6001 14.2346 12.3501 14.2346H9.4501C9.2001 14.2346 8.95011 14.0346 8.95011 13.7846L8.80011 12.3847C8.75011 12.1347 8.95011 11.9347 9.2001 11.9347H12.3501C12.6001 11.9347 12.8001 12.1347 12.8001 12.3847V13.7846ZM12.8001 9.58468C12.8001 9.83468 12.6001 10.0347 12.3501 10.0347H9.00011C8.75011 10.0347 8.50011 9.83468 8.50011 9.58468L8.25011 7.6847C8.20011 7.4347 8.40011 7.2347 8.65011 7.2347H12.3001C12.5501 7.2347 12.7501 7.4347 12.7501 7.6847C12.8001 7.6847 12.8001 9.58468 12.8001 9.58468ZM17.9 17.9846C17.85 18.2346 17.65 18.4346 17.4 18.4346H15.2001C14.9501 18.4346 14.7501 18.2346 14.7501 17.9846V16.5846C14.7501 16.3346 14.9501 16.1346 15.2001 16.1346H17.65C17.9 16.1346 18.1 16.3346 18.05 16.5846L17.9 17.9846ZM18.35 13.7846C18.3 14.0346 18.1 14.2346 17.85 14.2346H15.2001C14.9501 14.2346 14.7501 14.0346 14.7501 13.7846V12.3847C14.7501 12.1347 14.9501 11.9347 15.2001 11.9347H18.1C18.35 11.9347 18.55 12.1347 18.5 12.3847L18.35 13.7846ZM18.8 9.58468C18.75 9.83468 18.55 10.0347 18.3 10.0347H15.2001C14.9501 10.0347 14.7501 9.83468 14.7501 9.58468V7.6847C14.7501 7.4347 14.9501 7.2347 15.2001 7.2347H18.6C18.85 7.2347 19.05 7.4347 19 7.6847L18.8 9.58468V9.58468ZM23.15 17.9846C23.1 18.2346 22.85 18.4346 22.6 18.4346H20.2C19.95 18.4346 19.75 18.2346 19.8 17.9846L19.95 16.5846C20 16.3346 20.2 16.1346 20.45 16.1346H23C23.25 16.1346 23.45 16.3346 23.4 16.5846L23.15 17.9846V17.9846ZM23.8 13.7846C23.75 14.0346 23.5 14.2346 23.25 14.2346H20.6C20.35 14.2346 20.15 14.0346 20.2 13.7846L20.35 12.3847C20.4 12.1347 20.6 11.9347 20.85 11.9347H23.6C23.85 11.9347 24.05 12.1347 24 12.3847L23.8 13.7846ZM24.45 9.58468C24.4 9.83468 24.15 10.0347 23.9 10.0347H21.05C20.8 10.0347 20.6 9.83468 20.65 9.58468L20.85 7.6847C20.9 7.4347 21.1 7.2347 21.35 7.2347H24.3C24.55 7.2347 24.75 7.4347 24.7 7.6847L24.45 9.58468" fill="#F15744"/>
<path d="M5.15007 30.1847C6.69646 30.1847 7.95005 28.9311 7.95005 27.3847C7.95005 25.8383 6.69646 24.5847 5.15007 24.5847C3.60369 24.5847 2.3501 25.8383 2.3501 27.3847C2.3501 28.9311 3.60369 30.1847 5.15007 30.1847Z" fill="#62727A"/>
<path d="M5.15023 28.7846C5.92342 28.7846 6.55022 28.1578 6.55022 27.3846C6.55022 26.6114 5.92342 25.9846 5.15023 25.9846C4.37704 25.9846 3.75024 26.6114 3.75024 27.3846C3.75024 28.1578 4.37704 28.7846 5.15023 28.7846Z" fill="white"/>
<path d="M22.05 30.1847C23.5964 30.1847 24.85 28.9311 24.85 27.3847C24.85 25.8383 23.5964 24.5847 22.05 24.5847C20.5036 24.5847 19.25 25.8383 19.25 27.3847C19.25 28.9311 20.5036 30.1847 22.05 30.1847Z" fill="#62727A"/>
<path d="M23.4501 27.3846C23.4501 28.1846 22.8001 28.7846 22.0501 28.7846C21.2501 28.7846 20.6501 28.1346 20.6501 27.3846C20.6501 26.5846 21.3001 25.9846 22.0501 25.9846C22.8001 25.9846 23.4501 26.5846 23.4501 27.3846Z" fill="white"/>
<path d="M29.5499 0.184814H28.1499V2.98479H29.5499C29.7999 2.98479 29.9999 2.78479 29.9999 2.53479V0.63481C29.9999 0.384813 29.7999 0.184814 29.5499 0.184814Z" fill="#62727A"/>
<path d="M5.15011 23.6348C3.10013 23.6348 1.40015 25.3348 1.40015 27.3847H8.90008C8.90008 25.2848 7.25009 23.6348 5.15011 23.6348Z" fill="#F15744"/>
<path d="M22.05 23.6348C20 23.6348 18.3 25.3348 18.3 27.3847H25.8C25.8 25.2848 24.1 23.6348 22.05 23.6348Z" fill="#F15744"/>
</svg>
