<svg width="26" height="26" viewBox="0 0 26 26" fill="none" xmlns="http://www.w3.org/2000/svg">
<path d="M12.9785 25.1236C18.7775 25.1236 23.4785 20.404 23.4785 14.582C23.4785 8.75995 18.7775 4.04028 12.9785 4.04028C7.17953 4.04028 2.47852 8.75995 2.47852 14.582C2.47852 20.404 7.17953 25.1236 12.9785 25.1236Z" fill="#428BC1"/>
<path d="M12.9787 22.7902C17.489 22.7902 21.1453 19.1152 21.1453 14.5819C21.1453 10.0485 17.489 6.37354 12.9787 6.37354C8.46835 6.37354 4.81201 10.0485 4.81201 14.5819C4.81201 19.1152 8.46835 22.7902 12.9787 22.7902Z" fill="white"/>
<path d="M4.18693 19.7903L3.27026 25.4986H4.06193C4.56193 25.4986 4.7286 24.9153 5.06193 24.207C5.4786 23.2903 6.4786 20.9153 6.4786 20.9153L4.18693 19.7903Z" fill="#428BC1"/>
<path d="M21.7285 19.7903L22.6868 25.4986H21.8952C21.3952 25.4986 21.2285 24.9153 20.8952 24.207C20.4785 23.2903 19.4785 20.9153 19.4785 20.9153L21.7285 19.7903Z" fill="#428BC1"/>
<path d="M5.14518 3.91528L7.60352 6.37362L6.31185 7.70695L3.85352 5.20695L5.14518 3.91528Z" fill="#428BC1"/>
<path d="M20.8118 3.91528L18.3535 6.37362L19.6452 7.70695L22.1035 5.20695L20.8118 3.91528Z" fill="#428BC1"/>
<path d="M1.97868 9.49854L9.31201 2.0402C8.39535 1.08187 7.10368 0.498535 5.64535 0.498535C2.77035 0.498535 0.437012 2.87354 0.437012 5.74854C0.437012 7.20687 1.02035 8.5402 1.97868 9.49854Z" fill="#B0B8B8"/>
<path d="M16.4788 2.08187L23.8954 9.45687C24.8538 8.49853 25.4371 7.20687 25.4371 5.74854C25.4371 2.87354 23.1038 0.498535 20.1871 0.498535C18.7288 0.540202 17.4371 1.12354 16.4788 2.08187Z" fill="#B0B8B8"/>
<path d="M8.18701 19.0818L12.4787 14.7068L12.9787 15.2068L8.68701 19.5401L8.18701 19.0818Z" fill="#ED4C5C"/>
<path d="M12.9787 16.1236C13.8301 16.1236 14.5203 15.4334 14.5203 14.582C14.5203 13.7305 13.8301 13.0403 12.9787 13.0403C12.1272 13.0403 11.437 13.7305 11.437 14.582C11.437 15.4334 12.1272 16.1236 12.9787 16.1236Z" fill="#428BC1"/>
<path d="M12.187 8.70679H13.7287V14.9568H12.187V8.70679Z" fill="#428BC1"/>
<path d="M13.7288 13.79H16.8538V15.3317H13.7288V13.79Z" fill="#428BC1"/>
</svg>
