<svg width="25" height="25" viewBox="0 0 25 25" fill="none" xmlns="http://www.w3.org/2000/svg">
<path d="M12.5003 0.5C5.87152 0.5 0.499024 5.8725 0.499024 12.5C0.498859 14.0761 0.809169 15.6367 1.41223 17.0929C2.01529 18.549 2.89929 19.8721 4.01374 20.9865C5.12819 22.101 6.45127 22.985 7.9074 23.588C9.36353 24.1911 10.9242 24.5014 12.5003 24.5013C19.1265 24.5013 24.5003 19.1288 24.5003 12.5C24.5003 5.8725 19.1265 0.5 12.5003 0.5V0.5ZM12.499 22C11.2515 22 10.0161 21.7543 8.86353 21.2769C7.71094 20.7994 6.66367 20.0997 5.78151 19.2175C4.89935 18.3354 4.19959 17.2881 3.72217 16.1355C3.24475 14.9829 2.99902 13.7476 2.99902 12.5C2.99902 11.2524 3.24475 10.0171 3.72217 8.86451C4.19959 7.71191 4.89935 6.66464 5.78151 5.78249C6.66367 4.90033 7.71094 4.20056 8.86353 3.72314C10.0161 3.24572 11.2515 3 12.499 3C13.7466 3 14.9819 3.24572 16.1345 3.72314C17.2871 4.20056 18.3344 4.90033 19.2165 5.78249C20.0987 6.66464 20.7985 7.71191 21.2759 8.86451C21.7533 10.0171 21.999 11.2524 21.999 12.5C21.999 13.7476 21.7533 14.9829 21.2759 16.1355C20.7985 17.2881 20.0987 18.3354 19.2165 19.2175C18.3344 20.0997 17.2871 20.7994 16.1345 21.2769C14.9819 21.7543 13.7466 22 12.499 22V22ZM13.7503 11.6625V5H11.2503V12.8063L6.81777 15.3663L8.06777 17.5312L13.2115 14.56C13.3684 14.4574 13.499 14.3193 13.5926 14.1569C13.6862 13.9944 13.7402 13.8122 13.7503 13.625V13.415L19.0503 8.2075C18.8054 7.86824 18.5351 7.54815 18.2415 7.25L13.7503 11.6625Z" fill="black"/>
</svg>
