<svg width="27" height="28" viewBox="0 0 27 28" fill="none" xmlns="http://www.w3.org/2000/svg">
<path d="M24 1.74878H3C2.46957 1.74878 1.96086 1.95949 1.58579 2.33457C1.21071 2.70964 1 3.21835 1 3.74878V24.7488C1 25.2792 1.21071 25.7879 1.58579 26.163C1.96086 26.5381 2.46957 26.7488 3 26.7488H24C24.5304 26.7488 25.0391 26.5381 25.4142 26.163C25.7893 25.7879 26 25.2792 26 24.7488V3.74878C26 3.21835 25.7893 2.70964 25.4142 2.33457C25.0391 1.95949 24.5304 1.74878 24 1.74878V1.74878Z" fill="#61B2E4"/>
<path d="M19.7498 9.17062H22.0938V5.65512C20.5308 5.65512 14.2808 4.09262 14.2808 10.7331V13.0766H11.1558V16.9831H14.2808V27.2486H18.1873V16.9831H21.7028L22.0933 13.0766H18.1873V10.7336C18.1873 9.17112 19.3593 9.17112 19.7498 9.17112V9.17062Z" fill="white"/>
<path d="M18.3095 26.7488H24.387C24.8148 26.7488 25.2251 26.5788 25.5276 26.2763C25.8301 25.9738 26 25.5636 26 25.1358V3.36178C26 2.93399 25.8301 2.52371 25.5276 2.22122C25.2251 1.91872 24.8148 1.74878 24.387 1.74878H2.613C2.18521 1.74878 1.77493 1.91872 1.47244 2.22122C1.16994 2.52371 1 2.93399 1 3.36178V25.1358C1 25.5636 1.16994 25.9738 1.47244 26.2763C1.77493 26.5788 2.18521 26.7488 2.613 26.7488H14.351" stroke="black" stroke-width="2" stroke-miterlimit="10"/>
<path d="M18.3088 26.7489V16.8529H21.8713L22.2673 12.8944H18.3088V10.5194C18.3088 8.93587 19.4963 8.93587 19.8923 8.93587H22.2673V5.37387C20.6673 5.21187 14.3503 3.79087 14.3503 10.5199V12.8949H11.1838V16.8534H14.3503V26.7489" stroke="black" stroke-width="2" stroke-miterlimit="10" stroke-linecap="round" stroke-linejoin="round"/>
</svg>
