<svg width="25" height="25" viewBox="0 0 25 25" fill="none" xmlns="http://www.w3.org/2000/svg">
<path d="M21.25 1.25H3.75C2.375 1.25 1.25 2.375 1.25 3.75V21.25C1.25 22.6262 2.375 23.75 3.75 23.75H21.25C22.625 23.75 23.75 22.6262 23.75 21.25V3.75C23.75 2.375 22.625 1.25 21.25 1.25ZM12.48 19.4037C14.3161 19.4034 16.0768 18.6738 17.375 17.3754C18.6732 16.077 19.4025 14.3161 19.4025 12.48C19.4025 12.0575 19.3487 11.65 19.2737 11.25H21.25V20.27C21.25 20.3836 21.2276 20.496 21.184 20.6009C21.1404 20.7058 21.0765 20.8011 20.9961 20.8812C20.9156 20.9613 20.82 21.0248 20.715 21.0679C20.6099 21.111 20.4973 21.133 20.3837 21.1325H4.61625C4.50267 21.133 4.39011 21.111 4.28503 21.0679C4.17996 21.0248 4.08443 20.9613 4.00394 20.8812C3.92346 20.8011 3.85959 20.7058 3.81601 20.6009C3.77243 20.496 3.75 20.3836 3.75 20.27V11.25H5.68625C5.61 11.65 5.55625 12.0575 5.55625 12.48C5.55658 14.3162 6.28615 16.0771 7.58454 17.3755C8.88292 18.6738 10.6438 19.4034 12.48 19.4037V19.4037ZM8.15375 12.48C8.15375 11.9119 8.26565 11.3493 8.48307 10.8244C8.70048 10.2995 9.01915 9.82261 9.42088 9.42088C9.82261 9.01915 10.2995 8.70048 10.8244 8.48307C11.3493 8.26565 11.9119 8.15375 12.48 8.15375C13.0481 8.15375 13.6107 8.26565 14.1356 8.48307C14.6605 8.70048 15.1374 9.01915 15.5391 9.42088C15.9408 9.82261 16.2595 10.2995 16.4769 10.8244C16.6943 11.3493 16.8062 11.9119 16.8062 12.48C16.8062 13.6274 16.3504 14.7278 15.5391 15.5391C14.7278 16.3504 13.6274 16.8062 12.48 16.8062C11.3326 16.8062 10.2322 16.3504 9.42088 15.5391C8.60955 14.7278 8.15375 13.6274 8.15375 12.48V12.48ZM20.3837 7.5H18.365C18.1358 7.49934 17.9162 7.40799 17.7541 7.24592C17.592 7.08384 17.5007 6.86421 17.5 6.635V4.61375C17.5 4.13625 17.8875 3.75 18.3637 3.75H20.3825C20.8625 3.75 21.25 4.13625 21.25 4.61375V6.63375C21.25 7.11 20.8625 7.5 20.3837 7.5Z" fill="black"/>
</svg>
