<svg width="33" height="27" viewBox="0 0 33 27" fill="none" xmlns="http://www.w3.org/2000/svg">
<path d="M0.489534 21.606L9.83443 12.5681L2.66159 2.96826C2.308 3.38972 2.05544 3.95166 2.00492 4.60726L0.186456 19.9202C0.135943 20.5758 0.236969 21.1377 0.489534 21.606Z" fill="#B0BDC6"/>
<path d="M31.8578 1.37646L18.3203 13.0368L28.9785 26.3829C29.5847 25.9146 29.9888 25.2122 30.0898 24.3693L32.5145 3.48375C32.6155 2.64083 32.3124 1.84475 31.8578 1.37646Z" fill="#B0BDC6"/>
<path d="M13.169 17.2512L9.83513 12.5684L0.490234 21.6063C0.692286 22.0277 1.04588 22.3087 1.44998 22.4023L27.1106 26.8979C27.8178 27.0384 28.4744 26.8042 28.9796 26.3828L18.3213 13.0366L13.169 17.2512Z" fill="#CAD5DD"/>
<path d="M30.1412 0.674015L3.77339 2.31301C3.36929 2.35984 2.96519 2.59398 2.66211 2.96861L9.88547 12.5685L13.2193 17.2513L18.3716 13.0367L31.8586 1.37644C31.404 0.908158 30.7978 0.627187 30.1412 0.674015Z" fill="#DFE9EF"/>
<path d="M17.9664 9.85232L18.2695 7.46407L9.42972 7.41724L7.96484 18.6093L16.5521 20.4824L16.9056 18.0941L10.44 16.9234L10.7936 14.3479L17.2592 15.1908L17.5623 12.8025L11.0461 12.1937L11.3997 9.57135L17.9664 9.85232Z" fill="#428BC1"/>
</svg>
