<svg width="25" height="25" viewBox="0 0 25 25" fill="none" xmlns="http://www.w3.org/2000/svg">
<path d="M18.2605 15.2149C18.2605 16.2649 18.5593 16.6837 19.3405 16.6837C21.0818 16.6837 22.1905 14.4649 22.1905 10.7749C22.1905 5.13492 18.0805 2.43492 12.9493 2.43492C7.67055 2.43492 2.8693 5.97492 2.8693 12.6649C2.8693 19.0549 7.0693 22.5349 13.5193 22.5349C15.7093 22.5349 17.1793 22.2949 19.428 21.5449L19.9105 23.5537C17.6905 24.2749 15.318 24.4837 13.4893 24.4837C5.0293 24.4837 0.498047 19.8337 0.498047 12.6637C0.498047 5.43367 5.7493 0.513672 12.9793 0.513672C20.5093 0.513672 24.498 5.01367 24.498 10.5337C24.498 15.2137 23.0293 18.7837 18.4093 18.7837C16.308 18.7837 14.9293 17.9437 14.7493 16.0824C14.2093 18.1524 12.7693 18.7837 10.818 18.7837C8.20805 18.7837 6.01805 16.7724 6.01805 12.7237C6.01805 8.64367 7.9393 6.12367 11.3893 6.12367C13.2193 6.12367 14.3593 6.84367 14.8668 7.98367L15.738 6.39367H18.258V15.2149H18.2605V15.2149ZM14.5718 11.2549C14.5718 9.60617 13.3405 8.91492 12.3205 8.91492C11.2105 8.91492 9.9818 9.81367 9.9818 12.4549C9.9818 14.5549 10.9118 15.7249 12.3205 15.7249C13.3105 15.7249 14.5718 15.0949 14.5718 13.3549V11.2549Z" fill="black"/>
</svg>
