<svg width="21" height="21" viewBox="0 0 21 21" fill="none" xmlns="http://www.w3.org/2000/svg">
<path d="M6.85122 18.6987L0.317871 19.232L2.35121 1.49863L8.68455 1.09863L6.85122 18.6987Z" fill="#DFE9EF"/>
<path d="M14.118 20.4987L6.85132 18.6987L8.68465 1.09863L13.2847 3.09864L14.118 20.4987Z" fill="#BBC3C7"/>
<path d="M20.3178 18.2319L14.1178 20.4986L13.2844 3.09854L18.2844 0.498535L20.3178 18.2319Z" fill="#DFE9EF"/>
<path d="M7.01798 17.1986L1.91797 17.5986L3.48464 2.66523L8.55131 2.36523L7.01798 17.1986Z" fill="#5DF6FF"/>
<path d="M14.0512 19.1653L7.01782 17.1986L8.55116 2.36523L13.3512 4.36524L14.0512 19.1653Z" fill="#00C0CF"/>
<path d="M18.9513 17.3318L14.0513 19.1651L13.3513 4.36509L17.318 2.46509L18.9513 17.3318Z" fill="#5DF6FF"/>
<g opacity="0.7">
<path opacity="0.7" d="M6.85121 11.8318C6.75121 11.8651 6.65121 11.9318 6.58455 11.9985L6.61788 12.0318C5.98454 13.1985 6.98455 13.5985 6.98455 13.5985C6.58455 15.6318 7.41788 16.2985 7.41788 16.2985C7.21788 14.7651 8.41788 13.7651 8.41788 13.7651C8.75122 12.1985 7.31788 11.8985 6.85121 11.8318Z" fill="#F361F5"/>
<path opacity="0.7" d="M6.45113 11.6984C5.85113 11.2984 5.85113 10.6651 5.85113 10.6651C6.85113 10.6651 7.95113 9.19844 7.95113 9.19844C7.2178 6.86511 6.9178 8.83178 6.9178 8.83178C5.85113 7.69844 7.2178 7.16511 7.2178 7.16511C6.38446 6.83177 6.01779 5.89844 6.01779 5.89844C5.98446 6.49844 5.71779 6.4651 5.71779 6.4651C3.81779 5.43177 3.48446 7.09844 3.48446 7.09844C3.78446 7.99844 3.15112 8.09844 3.15112 8.09844C3.78446 8.19844 4.11779 7.39844 4.11779 7.39844C5.41779 7.99844 4.71779 10.1984 4.71779 10.1984C5.21779 10.4651 5.35113 11.3984 5.35113 11.3984C5.71779 11.4984 6.05113 11.6984 6.31779 11.8651C6.35113 11.7651 6.38446 11.7318 6.45113 11.6984Z" fill="#EDBA53"/>
<path opacity="0.7" d="M8.45117 5.19846C8.45117 5.19846 7.88451 4.8318 6.95117 5.39847C6.95117 5.39847 6.71784 7.49847 8.45117 5.19846Z" fill="#EEF8FB"/>
<path opacity="0.7" d="M9.85106 5.66513C9.11773 4.46513 7.91772 6.09846 7.91772 6.09846C8.35106 6.4318 8.38439 6.7318 8.31773 6.99847C8.01773 7.99847 8.41773 8.29847 8.41773 8.29847C8.65106 7.46513 9.45106 7.3318 9.45106 7.3318C9.35106 6.56513 9.85106 5.66513 9.85106 5.66513Z" fill="#5F5CFF"/>
<path opacity="0.7" d="M11.8845 11.0652C11.8178 11.0986 11.7512 11.0986 11.6845 11.0652C11.5178 10.8986 11.4178 10.6986 11.3178 10.4986C11.2845 10.4652 11.2845 10.4319 11.2845 10.3986C10.7178 10.1986 9.61784 9.99857 9.45117 11.5319C9.45117 11.5319 9.65117 12.5652 10.3512 12.0319C10.3512 12.0319 11.1178 12.1652 10.8178 13.5319C10.8178 13.5319 10.9512 14.5986 11.6178 14.4986C11.6178 14.4986 11.7845 12.9652 12.6512 11.7652C12.6178 11.7986 12.2845 12.1319 11.8845 11.0652Z" fill="#FF7033"/>
<path opacity="0.7" d="M17.4179 5.86528C17.4179 5.86528 15.7845 6.43195 13.9845 6.26528C13.9845 6.26528 14.1512 5.73195 13.5178 5.66528C13.5178 5.66528 12.6845 6.66529 13.0512 7.23195C13.0512 7.23195 12.8845 8.23195 12.6845 6.76528C12.6845 6.76528 12.3512 7.63195 11.8512 7.43195C11.8512 7.43195 11.7178 8.29862 11.4178 7.73195C11.4178 7.73195 11.6512 7.83195 11.7178 7.56529C11.7178 7.56529 11.0178 6.86528 10.6178 7.93195C10.6178 7.93195 10.2845 8.06529 10.4178 8.53195C10.4178 8.53195 10.6512 8.13195 10.7845 8.73196C10.7845 8.73196 10.9178 8.63195 10.9512 7.86529C10.9512 7.86529 11.2845 7.69862 11.0178 8.33195C11.0178 8.33195 11.7512 8.33195 10.6178 8.96529C10.6178 8.96529 10.5512 8.96529 10.5178 8.73196C10.5178 8.73196 10.3512 9.29862 9.98451 9.49862C9.98451 9.49862 10.0845 9.73196 9.81784 9.83196C9.81784 9.83196 9.68451 10.1986 10.0178 10.1986C10.0178 10.1986 10.3178 9.36529 10.8845 10.032C10.8845 10.032 10.9845 9.99862 10.8178 9.66529C10.8178 9.66529 11.1178 9.76529 11.2178 10.1986C11.2178 10.1986 11.3845 10.1653 11.4178 9.79862C11.4178 9.79862 11.6512 9.29862 12.0178 9.89862C12.0178 9.89862 11.5178 9.76529 11.3845 10.232C11.3845 10.232 11.6178 10.132 11.7512 10.2653C11.7512 10.2653 11.7512 10.4986 11.6178 10.5653C11.6845 10.6653 11.7512 10.7986 11.8512 10.8653C11.9178 10.932 11.9178 10.9986 11.8845 11.0653C12.1512 11.4986 12.6178 12.032 12.9845 11.1653C12.9845 11.1653 12.5178 11.3986 12.3845 10.732C12.3845 10.732 13.5512 10.8653 13.8512 12.032C13.8512 12.032 14.1845 11.7986 14.2845 11.032C14.2845 11.032 14.6845 11.0653 15.1512 12.032C15.1512 12.032 15.3512 11.9986 15.2512 11.3653C15.2512 11.3653 16.0179 11.0653 15.5845 9.83196C15.5845 9.83196 16.2179 10.6653 16.0179 9.59862C16.0179 9.59862 16.7179 8.79862 15.8845 8.26529C15.8845 8.26529 15.9179 7.66529 16.4179 7.76529C16.4179 7.76529 16.9179 6.53195 16.6845 7.99862C16.6845 7.99862 16.6845 8.29862 17.0179 8.59862C17.0179 8.59862 17.1512 8.13195 16.9179 7.59862C16.9845 7.53195 17.4845 6.63195 17.4179 5.86528Z" fill="#6C732D"/>
<g opacity="0.7">
<path opacity="0.7" d="M10.2846 9.09854C10.418 8.79854 9.98462 8.49854 9.98462 8.49854C10.0513 9.1652 10.1513 9.3652 10.2846 9.09854Z" fill="#F361F5"/>
<path opacity="0.7" d="M9.75122 9.13166C9.75122 9.13166 9.95122 9.09832 9.91789 8.86499C9.91789 8.86499 9.75122 8.86499 9.75122 9.13166Z" fill="#F361F5"/>
<path opacity="0.7" d="M9.68461 7.76514C9.68461 7.76514 9.15127 7.76514 9.35127 8.0318C9.51794 8.26514 9.68461 7.76514 9.68461 7.76514Z" fill="#F361F5"/>
</g>
<path opacity="0.7" d="M12.3846 13.9985C12.3846 13.9985 12.5512 13.6985 12.5512 13.1985C12.5512 13.1985 12.0179 13.7652 12.3846 13.9985Z" fill="#EDFF54"/>
<path opacity="0.7" d="M15.7844 12.0317C15.7844 12.0317 15.4178 12.3651 15.4844 12.6651C15.5511 12.9651 15.8844 12.5984 15.7844 12.0317Z" fill="#EEF8FB"/>
<path opacity="0.7" d="M17.3177 13.0985C17.4844 12.8319 16.4177 12.4985 16.4177 12.4985C16.6177 12.7652 17.1511 13.3319 17.3177 13.0985Z" fill="#EDFF54"/>
<path opacity="0.7" d="M16.0845 13.1318C16.3512 12.7318 15.3179 12.9318 15.3179 12.9318C15.3179 12.9318 15.9845 13.2985 16.0845 13.1318Z" fill="#F361F5"/>
<g opacity="0.7">
<path opacity="0.7" d="M16.4845 13.2318C16.4845 13.2318 16.2845 13.6652 15.5178 13.8318C15.5178 13.8318 15.6845 14.1652 15.5178 14.8318C15.5178 14.8318 16.2845 13.9318 16.7178 15.2318C16.7178 15.2318 17.0845 15.4318 17.3512 14.2318C17.3512 14.2318 17.0178 13.7985 16.9178 13.1985C16.9512 13.1985 16.8512 13.9652 16.4845 13.2318Z" fill="#FF3333"/>
<path opacity="0.7" d="M16.1511 10.3319C16.1511 10.3319 17.0178 10.0319 16.6511 9.33185C16.6845 9.29852 16.7511 9.26518 16.7511 9.26518C16.3845 8.69852 16.5178 9.49852 16.5178 9.49852C16.5511 9.43185 16.5845 9.39852 16.5845 9.36518C16.5845 9.63185 16.5511 9.99852 16.1511 10.3319Z" fill="#FF3333"/>
<path opacity="0.7" d="M7.18439 7.66522C7.18439 7.66522 7.81772 8.56522 7.88439 7.56522C7.91772 7.33189 7.81772 7.29855 7.71772 7.29855C7.68439 6.63189 7.21772 6.43188 7.21772 6.43188C6.91772 6.59855 6.95105 6.83189 6.95105 6.83189C7.21772 6.86522 7.38439 7.19855 7.48439 7.46522C7.45105 7.56522 7.35105 7.66522 7.18439 7.66522Z" fill="#FF3333"/>
</g>
<path opacity="0.7" d="M10.0846 5.1318C10.2846 4.7318 9.68457 4.26514 9.68457 4.26514C9.75124 5.23181 9.88457 5.53181 10.0846 5.1318Z" fill="#EDFF54"/>
<path opacity="0.7" d="M9.58441 4.76514C9.58441 4.76514 9.35107 4.79847 9.35107 5.16514C9.35107 5.16514 9.65108 5.1318 9.58441 4.76514Z" fill="white"/>
</g>
</svg>
