<svg width="25" height="25" viewBox="0 0 25 25" fill="none" xmlns="http://www.w3.org/2000/svg">
<g clip-path="url(#clip0)">
<path d="M24.3088 4.64753L16.8087 0.897526C16.6351 0.810625 16.4436 0.765381 16.2494 0.765381C16.0552 0.765381 15.8637 0.810625 15.69 0.897526L8.6525 4.41628L1.645 2.08003C1.45708 2.01744 1.25698 2.0004 1.06119 2.03032C0.8654 2.06023 0.679519 2.13625 0.518868 2.2521C0.358218 2.36795 0.227396 2.52031 0.137184 2.69664C0.0469719 2.87297 -4.76617e-05 3.06821 3.62534e-08 3.26628V19.5175C3.62534e-08 19.9913 0.2675 20.4238 0.69125 20.635L8.19125 24.385C8.36492 24.4712 8.55615 24.516 8.75 24.516C8.94385 24.516 9.13508 24.4712 9.30875 24.385L16.3462 20.8675L23.3538 23.2038C23.5417 23.2667 23.7419 23.2839 23.9378 23.2541C24.1337 23.2243 24.3197 23.1483 24.4804 23.0324C24.6411 22.9165 24.772 22.764 24.8621 22.5876C24.9522 22.4111 24.9991 22.2157 24.9988 22.0175V5.76503C24.9993 5.53296 24.935 5.30535 24.8131 5.10789C24.6912 4.91043 24.5165 4.75098 24.3088 4.64753V4.64753ZM10 6.53878L15 4.03878V18.7425L10 21.2425V6.53878ZM2.5 5.00003L7.5 6.66628V21.2425L2.5 18.7425V5.00003ZM22.5 20.2838L17.5 18.6163V4.03878L22.5 6.53878V20.2838Z" fill="black"/>
</g>
<defs>
<clipPath id="clip0">
<rect width="25" height="25" fill="white"/>
</clipPath>
</defs>
</svg>
