<svg width="26" height="24" viewBox="0 0 26 24" fill="none" xmlns="http://www.w3.org/2000/svg">
<path d="M9.9015 22.0587C9.9015 22.9724 9.15399 23.7199 8.24037 23.7199H5.91479C5.00117 23.7199 4.25366 22.9724 4.25366 22.0587V20.979H9.9015V22.0587Z" fill="#333333"/>
<path d="M22.0277 22.0587C22.0277 22.9724 21.2802 23.7199 20.3666 23.7199H18.041C17.1274 23.7199 16.3799 22.9724 16.3799 22.0587V20.979H22.0277V22.0587Z" fill="#333333"/>
<path d="M23.1489 2.58205C21.2386 1.3362 17.4595 0.464111 13.1406 0.464111C8.15721 0.464111 3.8798 1.58537 2.38479 3.16345C1.34658 4.20165 0.682129 5.7382 0.682129 7.48238C0.682129 9.01893 9.65223 9.01893 9.65223 7.48238C9.65223 6.31959 9.36153 5.23986 8.86319 4.32624C10.1921 4.1186 11.6456 4.03554 13.1821 4.03554C14.7187 4.03554 16.1722 4.16012 17.5011 4.32624C17.0027 5.19833 16.712 6.31959 16.712 7.48238C16.712 9.01893 25.6821 9.01893 25.6821 7.48238C25.5991 5.32292 24.6024 3.49567 23.1489 2.58205" fill="#676E72"/>
<path d="M7.28516 3.32959C7.86655 4.32627 9.44463 6.85949 8.44795 7.85617C10.6489 7.77311 8.57253 3.74487 7.28516 3.32959Z" fill="#333333"/>
<path d="M23.2734 3.32959C23.8548 4.32627 25.4329 6.85949 24.4362 7.85617C26.5957 7.77311 24.5608 3.74487 23.2734 3.32959Z" fill="#333333"/>
<path d="M23.7717 20.273C23.7717 21.1866 23.0242 21.9341 22.1106 21.9341H4.21191C3.29829 21.9341 2.55078 21.1866 2.55078 20.273V17.2415H23.7717V20.273Z" fill="#676E72"/>
<path d="M23.7717 17.2415H2.50928C2.50928 17.2415 4.50263 12.5488 7.20197 12.5488H19.079C21.7784 12.5488 23.7717 17.2415 23.7717 17.2415" fill="#333333"/>
<path d="M21.5294 15.3728H4.75195C4.75195 15.3728 6.2885 7.89771 8.44797 7.89771H17.7918C19.9513 7.89771 21.5294 15.3728 21.5294 15.3728Z" fill="#676E72"/>
<path d="M16.7952 2.16664C16.3384 2.58192 16.0061 3.8693 15.4663 4.20152C14.4696 4.78292 11.8118 4.78292 10.8151 4.20152C10.3168 3.8693 9.94303 2.58192 9.48622 2.16664C9.15399 1.87594 8.03273 1.83441 7.82509 2.16664C7.20216 3.16332 9.07093 5.7796 10.1507 6.23641C11.5211 6.8178 14.7188 6.8178 16.0892 6.23641C17.1689 5.7796 19.0792 3.16332 18.4148 2.16664C18.2071 1.79289 17.0859 1.87594 16.7952 2.16664" fill="#333333"/>
<path d="M19.2868 9.22648C20.0343 11.9258 17.335 14.7082 13.0576 14.7082C8.78016 14.7082 6.16388 11.9673 6.99445 9.22648C7.6589 7.06701 10.3582 5.61353 13.1822 5.61353C16.0061 5.65505 18.7054 7.06701 19.2868 9.22648" fill="#A59A7C"/>
<path d="M18.9961 8.97734C19.6605 11.5106 17.0858 14.0438 13.0575 14.0438C9.02929 14.0438 6.57913 11.469 7.32664 8.97734C7.90803 6.94245 10.5243 5.57202 13.2236 5.57202C15.923 5.57202 18.4562 6.94245 18.9961 8.97734Z" fill="#F9EEB6"/>
<path d="M15.6323 9.01902C15.7569 10.0572 14.6356 10.9293 13.1406 10.9293C11.6456 10.9293 10.5659 10.0157 10.6904 9.01902C10.815 8.10539 11.9363 7.39941 13.1821 7.39941C14.428 7.39941 15.5492 8.10539 15.6323 9.01902Z" fill="#A59A7C"/>
<path d="M15.5492 8.93596C15.6323 9.89111 14.5941 10.7217 13.1406 10.7217C11.7286 10.7217 10.6904 9.89111 10.7735 8.93596C10.898 8.06387 11.9362 7.39941 13.1821 7.39941C14.3864 7.39941 15.4246 8.06387 15.5492 8.93596Z" fill="#D1C5B5"/>
<path d="M12.5178 6.02878C12.1025 6.27795 12.1025 6.6517 12.4763 6.90087C12.8915 7.15004 13.556 7.15004 13.9297 6.90087C14.3035 6.6517 14.3035 6.27795 13.8882 6.02878C13.5145 5.82114 12.8915 5.82114 12.5178 6.02878" fill="#A8A08D"/>
<path d="M14.7602 7.10852C14.8017 7.48227 15.3 7.8145 15.8814 7.8145C16.4628 7.8145 16.9196 7.48227 16.8366 7.10852C16.7535 6.73477 16.2552 6.4856 15.7153 6.4856C15.1339 6.4856 14.7187 6.77629 14.7602 7.10852Z" fill="#A8A08D"/>
<path d="M15.0093 11.1367C15.0509 11.6766 15.6738 12.1334 16.4213 12.1334C17.1688 12.1334 17.6671 11.6766 17.5425 11.1367C17.4595 10.5968 16.8366 10.2231 16.1721 10.2231C15.5077 10.1816 14.9678 10.5968 15.0093 11.1367" fill="#A8A08D"/>
<path d="M12.1439 12.9225C12.6837 13.3794 13.5558 13.3794 14.0957 12.9225C14.594 12.5073 14.594 11.8013 14.0542 11.4275C13.5558 11.0538 12.7668 11.0538 12.2269 11.4275C11.6871 11.8428 11.6455 12.5073 12.1439 12.9225" fill="#A8A08D"/>
<path d="M8.69706 11.1368C8.57247 11.6766 9.07081 12.1334 9.81832 12.1334C10.5658 12.1334 11.1888 11.6766 11.2303 11.1368C11.2718 10.5969 10.7735 10.2231 10.109 10.2231C9.44457 10.2231 8.82164 10.5969 8.69706 11.1368" fill="#A8A08D"/>
<path d="M8.15722 9.51702C8.53097 9.84925 9.27848 9.84925 9.81835 9.51702C10.3167 9.18479 10.3997 8.68646 10.026 8.39576C9.65223 8.10506 8.94626 8.10506 8.44792 8.39576C7.90805 8.68646 7.78346 9.18479 8.15722 9.51702Z" fill="#A8A08D"/>
<path d="M11.6041 7.10852C11.6456 6.73477 11.2303 6.4856 10.6489 6.4856C10.1091 6.4856 9.5692 6.77629 9.48614 7.10852C9.40309 7.48227 9.81837 7.8145 10.4413 7.8145C11.0642 7.8145 11.5626 7.48227 11.6041 7.10852Z" fill="#A8A08D"/>
<path d="M12.5178 6.11193C12.1025 6.3611 12.1025 6.73485 12.4763 6.98402C12.85 7.23319 13.5145 7.23319 13.9297 6.98402C14.3035 6.73485 14.3035 6.31957 13.8882 6.11193C13.5145 5.86276 12.8915 5.86276 12.5178 6.11193" fill="white"/>
<path d="M14.7188 7.1918C14.7603 7.56555 15.2586 7.89777 15.84 7.89777C16.4214 7.89777 16.8367 7.56555 16.7952 7.1918C16.7121 6.81804 16.2138 6.52734 15.6739 6.52734C15.134 6.56887 14.7188 6.81804 14.7188 7.1918Z" fill="white"/>
<path d="M15.0095 11.22C15.051 11.7599 15.6739 12.2582 16.3799 12.2582C17.0859 12.2582 17.6258 11.8014 17.5012 11.22C17.4181 10.6802 16.7952 10.2649 16.1308 10.2649C15.4663 10.3064 14.968 10.7217 15.0095 11.22Z" fill="white"/>
<path d="M12.1439 13.0886C12.6422 13.5454 13.5143 13.5454 14.0542 13.0886C14.5525 12.6318 14.511 11.9673 14.0126 11.552C13.5143 11.1783 12.7253 11.1783 12.2269 11.552C11.6871 11.9673 11.6455 12.6318 12.1439 13.0886Z" fill="white"/>
<path d="M8.73856 11.22C8.61398 11.7599 9.11232 12.2582 9.85982 12.2582C10.5658 12.2582 11.2303 11.8014 11.2718 11.22C11.3133 10.6802 10.815 10.2649 10.1505 10.2649C9.48607 10.3064 8.86315 10.7217 8.73856 11.22Z" fill="white"/>
<path d="M8.19879 9.60027C8.57254 9.9325 9.32005 9.9325 9.85992 9.60027C10.3583 9.26805 10.4413 8.76971 10.0676 8.47901C9.69381 8.18831 8.98783 8.18831 8.48949 8.47901C7.99115 8.76971 7.82504 9.26805 8.19879 9.60027Z" fill="white"/>
<path d="M11.6456 7.1918C11.6871 6.81804 11.2718 6.52734 10.6904 6.52734C10.1506 6.52734 9.65223 6.81804 9.56918 7.1918C9.48612 7.56555 9.9014 7.89777 10.4828 7.89777C11.1057 7.89777 11.6041 7.56555 11.6456 7.1918Z" fill="white"/>
<path d="M19.3698 12.1336L18.4146 12.5489L17.0027 9.30967L17.0442 9.14355L19.4113 11.9675L19.3698 12.1336Z" fill="#A59A7C"/>
<path d="M19.4113 11.9673L18.4561 12.3826L17.0442 9.14341L17.5841 8.97729L19.4113 11.9673Z" fill="#D1C5B5"/>
</svg>
