<svg width="25" height="25" viewBox="0 0 25 25" fill="none" xmlns="http://www.w3.org/2000/svg">
<path d="M21.5699 15.3163C21.4499 14.4825 20.8061 13.8325 19.9774 13.6388C16.7561 12.8838 15.9486 11.0288 15.8124 8.97125C15.2411 8.865 14.2249 8.75 12.4999 8.75C10.7749 8.75 9.75863 8.865 9.18738 8.97125C9.05113 11.0288 8.24363 12.8838 5.02238 13.6388C4.19363 13.8338 3.54988 14.4825 3.42988 15.3163L2.80863 19.6187C2.58988 21.1337 3.70238 22.5 5.24988 22.5H19.7499C21.2961 22.5 22.4099 21.1337 22.1911 19.6187L21.5699 15.3163ZM12.4999 19.365C10.7561 19.365 9.34238 17.965 9.34238 16.24C9.34238 14.515 10.7561 13.115 12.4999 13.115C14.2436 13.115 15.6574 14.515 15.6574 16.24C15.6574 17.965 14.2424 19.365 12.4999 19.365ZM24.9374 7.5C24.9074 5.625 20.1349 2.50125 12.4999 2.5C4.86363 2.50125 0.0911332 5.625 0.0623832 7.5C0.0336332 9.375 0.0886333 11.815 3.23113 11.4087C6.90738 10.9325 6.68113 9.64875 6.68113 7.81375C6.68113 6.53375 9.67113 6.225 12.4999 6.225C15.3286 6.225 18.3174 6.53375 18.3186 7.81375C18.3186 9.64875 18.0924 10.9325 21.7686 11.4087C24.9099 11.815 24.9661 9.375 24.9374 7.5Z" fill="black"/>
</svg>
